M48
; DRILL file {KiCad (5.1.5)-3} date 01.03.2021 19:21:29
; FORMAT={-:-/ absolute / inch / decimal}
; #@! TF.CreationDate,2021-03-01T19:21:29+01:00
; #@! TF.GenerationSoftware,Kicad,Pcbnew,(5.1.5)-3
; #@! TF.FileFunction,Plated,1,2,PTH
FMAT,2
INCH
T1C0.0433
%
G90
G05
T1
G00X1.5413Y-0.9449
M15
G01X1.5689Y-0.9449
M16
G05
G00X1.7382Y-0.9449
M15
G01X1.7657Y-0.9449
M16
G05
G00X0.5965Y-0.9449
M15
G01X0.624Y-0.9449
M16
G05
G00X0.7933Y-0.9449
M15
G01X0.8209Y-0.9449
M16
G05
G00X1.0689Y-1.2598
M15
G01X1.0965Y-1.2598
M16
G05
G00X1.2657Y-1.2598
M15
G01X1.2933Y-1.2598
M16
G05
G00X0.5965Y-1.2598
M15
G01X0.624Y-1.2598
M16
G05
G00X0.7933Y-1.2598
M15
G01X0.8209Y-1.2598
M16
G05
G00X1.0689Y-0.9449
M15
G01X1.0965Y-0.9449
M16
G05
G00X1.2657Y-0.9449
M15
G01X1.2933Y-0.9449
M16
G05
G00X1.5413Y-1.2598
M15
G01X1.5689Y-1.2598
M16
G05
G00X1.7382Y-1.2598
M15
G01X1.7657Y-1.2598
M16
G05
T0
M30
