%TF.GenerationSoftware,KiCad,Pcbnew,(5.1.5)-3*%
%TF.CreationDate,2021-03-01T19:21:26+01:00*%
%TF.ProjectId,LandstromWarnung,4c616e64-7374-4726-9f6d-5761726e756e,rev?*%
%TF.SameCoordinates,Original*%
%TF.FileFunction,Legend,Bot*%
%TF.FilePolarity,Positive*%
%FSLAX46Y46*%
G04 Gerber Fmt 4.6, Leading zero omitted, Abs format (unit mm)*
G04 Created by KiCad (PCBNEW (5.1.5)-3) date 2021-03-01 19:21:26*
%MOMM*%
%LPD*%
G04 APERTURE LIST*
%ADD10C,0.088900*%
G04 APERTURE END LIST*
%TO.C,J3*%
D10*
X35747366Y-30505633D02*
X36763366Y-30505633D01*
X36966566Y-30573366D01*
X37102033Y-30708833D01*
X37169766Y-30912033D01*
X37169766Y-31047500D01*
X35747366Y-29963766D02*
X35747366Y-29083233D01*
X36289233Y-29557366D01*
X36289233Y-29354166D01*
X36356966Y-29218700D01*
X36424700Y-29150966D01*
X36560166Y-29083233D01*
X36898833Y-29083233D01*
X37034300Y-29150966D01*
X37102033Y-29218700D01*
X37169766Y-29354166D01*
X37169766Y-29760566D01*
X37102033Y-29896033D01*
X37034300Y-29963766D01*
%TO.C,J7*%
X23747366Y-22505633D02*
X24763366Y-22505633D01*
X24966566Y-22573366D01*
X25102033Y-22708833D01*
X25169766Y-22912033D01*
X25169766Y-23047500D01*
X23747366Y-21963766D02*
X23747366Y-21015500D01*
X25169766Y-21625100D01*
%TO.C,J8*%
X23747366Y-30505633D02*
X24763366Y-30505633D01*
X24966566Y-30573366D01*
X25102033Y-30708833D01*
X25169766Y-30912033D01*
X25169766Y-31047500D01*
X24356966Y-29625100D02*
X24289233Y-29760566D01*
X24221500Y-29828300D01*
X24086033Y-29896033D01*
X24018300Y-29896033D01*
X23882833Y-29828300D01*
X23815100Y-29760566D01*
X23747366Y-29625100D01*
X23747366Y-29354166D01*
X23815100Y-29218700D01*
X23882833Y-29150966D01*
X24018300Y-29083233D01*
X24086033Y-29083233D01*
X24221500Y-29150966D01*
X24289233Y-29218700D01*
X24356966Y-29354166D01*
X24356966Y-29625100D01*
X24424700Y-29760566D01*
X24492433Y-29828300D01*
X24627900Y-29896033D01*
X24898833Y-29896033D01*
X25034300Y-29828300D01*
X25102033Y-29760566D01*
X25169766Y-29625100D01*
X25169766Y-29354166D01*
X25102033Y-29218700D01*
X25034300Y-29150966D01*
X24898833Y-29083233D01*
X24627900Y-29083233D01*
X24492433Y-29150966D01*
X24424700Y-29218700D01*
X24356966Y-29354166D01*
%TO.C,J9*%
X11747366Y-22505633D02*
X12763366Y-22505633D01*
X12966566Y-22573366D01*
X13102033Y-22708833D01*
X13169766Y-22912033D01*
X13169766Y-23047500D01*
X13169766Y-21760566D02*
X13169766Y-21489633D01*
X13102033Y-21354166D01*
X13034300Y-21286433D01*
X12831100Y-21150966D01*
X12560166Y-21083233D01*
X12018300Y-21083233D01*
X11882833Y-21150966D01*
X11815100Y-21218700D01*
X11747366Y-21354166D01*
X11747366Y-21625100D01*
X11815100Y-21760566D01*
X11882833Y-21828300D01*
X12018300Y-21896033D01*
X12356966Y-21896033D01*
X12492433Y-21828300D01*
X12560166Y-21760566D01*
X12627900Y-21625100D01*
X12627900Y-21354166D01*
X12560166Y-21218700D01*
X12492433Y-21150966D01*
X12356966Y-21083233D01*
%TO.C,J10*%
X11747366Y-31182966D02*
X12763366Y-31182966D01*
X12966566Y-31250700D01*
X13102033Y-31386166D01*
X13169766Y-31589366D01*
X13169766Y-31724833D01*
X13169766Y-29760566D02*
X13169766Y-30573366D01*
X13169766Y-30166966D02*
X11747366Y-30166966D01*
X11950566Y-30302433D01*
X12086033Y-30437900D01*
X12153766Y-30573366D01*
X11747366Y-28880033D02*
X11747366Y-28744566D01*
X11815100Y-28609100D01*
X11882833Y-28541366D01*
X12018300Y-28473633D01*
X12289233Y-28405900D01*
X12627900Y-28405900D01*
X12898833Y-28473633D01*
X13034300Y-28541366D01*
X13102033Y-28609100D01*
X13169766Y-28744566D01*
X13169766Y-28880033D01*
X13102033Y-29015500D01*
X13034300Y-29083233D01*
X12898833Y-29150966D01*
X12627900Y-29218700D01*
X12289233Y-29218700D01*
X12018300Y-29150966D01*
X11882833Y-29083233D01*
X11815100Y-29015500D01*
X11747366Y-28880033D01*
%TO.C,J11*%
X35747366Y-23182966D02*
X36763366Y-23182966D01*
X36966566Y-23250700D01*
X37102033Y-23386166D01*
X37169766Y-23589366D01*
X37169766Y-23724833D01*
X37169766Y-21760566D02*
X37169766Y-22573366D01*
X37169766Y-22166966D02*
X35747366Y-22166966D01*
X35950566Y-22302433D01*
X36086033Y-22437900D01*
X36153766Y-22573366D01*
X37169766Y-20405900D02*
X37169766Y-21218700D01*
X37169766Y-20812300D02*
X35747366Y-20812300D01*
X35950566Y-20947766D01*
X36086033Y-21083233D01*
X36153766Y-21218700D01*
%TD*%
M02*
