%TF.GenerationSoftware,KiCad,Pcbnew,(5.1.5)-3*%
%TF.CreationDate,2021-03-01T19:21:26+01:00*%
%TF.ProjectId,LandstromWarnung,4c616e64-7374-4726-9f6d-5761726e756e,rev?*%
%TF.SameCoordinates,Original*%
%TF.FileFunction,Legend,Top*%
%TF.FilePolarity,Positive*%
%FSLAX46Y46*%
G04 Gerber Fmt 4.6, Leading zero omitted, Abs format (unit mm)*
G04 Created by KiCad (PCBNEW (5.1.5)-3) date 2021-03-01 19:21:26*
%MOMM*%
%LPD*%
G04 APERTURE LIST*
%ADD10C,0.254000*%
%ADD11C,0.066040*%
%ADD12C,0.120000*%
%ADD13C,0.150000*%
G04 APERTURE END LIST*
D10*
%TO.C,J3*%
X37872500Y-32800100D02*
G75*
G03X39294900Y-34222500I1422400J0D01*
G01*
X44705100Y-34222500D02*
G75*
G03X46127500Y-32800100I0J1422400D01*
G01*
X37872500Y-32800100D02*
X37872500Y-30095000D01*
X44705100Y-34222500D02*
X39294900Y-34222500D01*
X46127500Y-30095000D02*
X46127500Y-32800100D01*
X37872500Y-30095000D02*
X46127500Y-30095000D01*
D11*
X40412500Y-32635000D02*
X40412500Y-31365000D01*
X40412500Y-31365000D02*
X43587500Y-31365000D01*
X43587500Y-32635000D02*
X43587500Y-31365000D01*
X40412500Y-32635000D02*
X43587500Y-32635000D01*
X45492500Y-32635000D02*
X45492500Y-31365000D01*
X45492500Y-31365000D02*
X46445000Y-31365000D01*
X46445000Y-32635000D02*
X46445000Y-31365000D01*
X45492500Y-32635000D02*
X46445000Y-32635000D01*
X37555000Y-32635000D02*
X37555000Y-31365000D01*
X37555000Y-31365000D02*
X38507500Y-31365000D01*
X38507500Y-32635000D02*
X38507500Y-31365000D01*
X37555000Y-32635000D02*
X38507500Y-32635000D01*
X43587500Y-32635000D02*
X43587500Y-31365000D01*
X43587500Y-31365000D02*
X45492500Y-31365000D01*
X45492500Y-32635000D02*
X45492500Y-31365000D01*
X43587500Y-32635000D02*
X45492500Y-32635000D01*
X38507500Y-32635000D02*
X38507500Y-31365000D01*
X38507500Y-31365000D02*
X40412500Y-31365000D01*
X40412500Y-32635000D02*
X40412500Y-31365000D01*
X38507500Y-32635000D02*
X40412500Y-32635000D01*
D10*
%TO.C,J7*%
X25872500Y-24800100D02*
G75*
G03X27294900Y-26222500I1422400J0D01*
G01*
X32705100Y-26222500D02*
G75*
G03X34127500Y-24800100I0J1422400D01*
G01*
X25872500Y-24800100D02*
X25872500Y-22095000D01*
X32705100Y-26222500D02*
X27294900Y-26222500D01*
X34127500Y-22095000D02*
X34127500Y-24800100D01*
X25872500Y-22095000D02*
X34127500Y-22095000D01*
D11*
X28412500Y-24635000D02*
X28412500Y-23365000D01*
X28412500Y-23365000D02*
X31587500Y-23365000D01*
X31587500Y-24635000D02*
X31587500Y-23365000D01*
X28412500Y-24635000D02*
X31587500Y-24635000D01*
X33492500Y-24635000D02*
X33492500Y-23365000D01*
X33492500Y-23365000D02*
X34445000Y-23365000D01*
X34445000Y-24635000D02*
X34445000Y-23365000D01*
X33492500Y-24635000D02*
X34445000Y-24635000D01*
X25555000Y-24635000D02*
X25555000Y-23365000D01*
X25555000Y-23365000D02*
X26507500Y-23365000D01*
X26507500Y-24635000D02*
X26507500Y-23365000D01*
X25555000Y-24635000D02*
X26507500Y-24635000D01*
X31587500Y-24635000D02*
X31587500Y-23365000D01*
X31587500Y-23365000D02*
X33492500Y-23365000D01*
X33492500Y-24635000D02*
X33492500Y-23365000D01*
X31587500Y-24635000D02*
X33492500Y-24635000D01*
X26507500Y-24635000D02*
X26507500Y-23365000D01*
X26507500Y-23365000D02*
X28412500Y-23365000D01*
X28412500Y-24635000D02*
X28412500Y-23365000D01*
X26507500Y-24635000D02*
X28412500Y-24635000D01*
D10*
%TO.C,J8*%
X25872500Y-32800100D02*
G75*
G03X27294900Y-34222500I1422400J0D01*
G01*
X32705100Y-34222500D02*
G75*
G03X34127500Y-32800100I0J1422400D01*
G01*
X25872500Y-32800100D02*
X25872500Y-30095000D01*
X32705100Y-34222500D02*
X27294900Y-34222500D01*
X34127500Y-30095000D02*
X34127500Y-32800100D01*
X25872500Y-30095000D02*
X34127500Y-30095000D01*
D11*
X28412500Y-32635000D02*
X28412500Y-31365000D01*
X28412500Y-31365000D02*
X31587500Y-31365000D01*
X31587500Y-32635000D02*
X31587500Y-31365000D01*
X28412500Y-32635000D02*
X31587500Y-32635000D01*
X33492500Y-32635000D02*
X33492500Y-31365000D01*
X33492500Y-31365000D02*
X34445000Y-31365000D01*
X34445000Y-32635000D02*
X34445000Y-31365000D01*
X33492500Y-32635000D02*
X34445000Y-32635000D01*
X25555000Y-32635000D02*
X25555000Y-31365000D01*
X25555000Y-31365000D02*
X26507500Y-31365000D01*
X26507500Y-32635000D02*
X26507500Y-31365000D01*
X25555000Y-32635000D02*
X26507500Y-32635000D01*
X31587500Y-32635000D02*
X31587500Y-31365000D01*
X31587500Y-31365000D02*
X33492500Y-31365000D01*
X33492500Y-32635000D02*
X33492500Y-31365000D01*
X31587500Y-32635000D02*
X33492500Y-32635000D01*
X26507500Y-32635000D02*
X26507500Y-31365000D01*
X26507500Y-31365000D02*
X28412500Y-31365000D01*
X28412500Y-32635000D02*
X28412500Y-31365000D01*
X26507500Y-32635000D02*
X28412500Y-32635000D01*
D10*
%TO.C,J9*%
X13872500Y-24800100D02*
G75*
G03X15294900Y-26222500I1422400J0D01*
G01*
X20705100Y-26222500D02*
G75*
G03X22127500Y-24800100I0J1422400D01*
G01*
X13872500Y-24800100D02*
X13872500Y-22095000D01*
X20705100Y-26222500D02*
X15294900Y-26222500D01*
X22127500Y-22095000D02*
X22127500Y-24800100D01*
X13872500Y-22095000D02*
X22127500Y-22095000D01*
D11*
X16412500Y-24635000D02*
X16412500Y-23365000D01*
X16412500Y-23365000D02*
X19587500Y-23365000D01*
X19587500Y-24635000D02*
X19587500Y-23365000D01*
X16412500Y-24635000D02*
X19587500Y-24635000D01*
X21492500Y-24635000D02*
X21492500Y-23365000D01*
X21492500Y-23365000D02*
X22445000Y-23365000D01*
X22445000Y-24635000D02*
X22445000Y-23365000D01*
X21492500Y-24635000D02*
X22445000Y-24635000D01*
X13555000Y-24635000D02*
X13555000Y-23365000D01*
X13555000Y-23365000D02*
X14507500Y-23365000D01*
X14507500Y-24635000D02*
X14507500Y-23365000D01*
X13555000Y-24635000D02*
X14507500Y-24635000D01*
X19587500Y-24635000D02*
X19587500Y-23365000D01*
X19587500Y-23365000D02*
X21492500Y-23365000D01*
X21492500Y-24635000D02*
X21492500Y-23365000D01*
X19587500Y-24635000D02*
X21492500Y-24635000D01*
X14507500Y-24635000D02*
X14507500Y-23365000D01*
X14507500Y-23365000D02*
X16412500Y-23365000D01*
X16412500Y-24635000D02*
X16412500Y-23365000D01*
X14507500Y-24635000D02*
X16412500Y-24635000D01*
D10*
%TO.C,J10*%
X13872500Y-32800100D02*
G75*
G03X15294900Y-34222500I1422400J0D01*
G01*
X20705100Y-34222500D02*
G75*
G03X22127500Y-32800100I0J1422400D01*
G01*
X13872500Y-32800100D02*
X13872500Y-30095000D01*
X20705100Y-34222500D02*
X15294900Y-34222500D01*
X22127500Y-30095000D02*
X22127500Y-32800100D01*
X13872500Y-30095000D02*
X22127500Y-30095000D01*
D11*
X16412500Y-32635000D02*
X16412500Y-31365000D01*
X16412500Y-31365000D02*
X19587500Y-31365000D01*
X19587500Y-32635000D02*
X19587500Y-31365000D01*
X16412500Y-32635000D02*
X19587500Y-32635000D01*
X21492500Y-32635000D02*
X21492500Y-31365000D01*
X21492500Y-31365000D02*
X22445000Y-31365000D01*
X22445000Y-32635000D02*
X22445000Y-31365000D01*
X21492500Y-32635000D02*
X22445000Y-32635000D01*
X13555000Y-32635000D02*
X13555000Y-31365000D01*
X13555000Y-31365000D02*
X14507500Y-31365000D01*
X14507500Y-32635000D02*
X14507500Y-31365000D01*
X13555000Y-32635000D02*
X14507500Y-32635000D01*
X19587500Y-32635000D02*
X19587500Y-31365000D01*
X19587500Y-31365000D02*
X21492500Y-31365000D01*
X21492500Y-32635000D02*
X21492500Y-31365000D01*
X19587500Y-32635000D02*
X21492500Y-32635000D01*
X14507500Y-32635000D02*
X14507500Y-31365000D01*
X14507500Y-31365000D02*
X16412500Y-31365000D01*
X16412500Y-32635000D02*
X16412500Y-31365000D01*
X14507500Y-32635000D02*
X16412500Y-32635000D01*
D10*
%TO.C,J11*%
X37872500Y-24800100D02*
G75*
G03X39294900Y-26222500I1422400J0D01*
G01*
X44705100Y-26222500D02*
G75*
G03X46127500Y-24800100I0J1422400D01*
G01*
X37872500Y-24800100D02*
X37872500Y-22095000D01*
X44705100Y-26222500D02*
X39294900Y-26222500D01*
X46127500Y-22095000D02*
X46127500Y-24800100D01*
X37872500Y-22095000D02*
X46127500Y-22095000D01*
D11*
X40412500Y-24635000D02*
X40412500Y-23365000D01*
X40412500Y-23365000D02*
X43587500Y-23365000D01*
X43587500Y-24635000D02*
X43587500Y-23365000D01*
X40412500Y-24635000D02*
X43587500Y-24635000D01*
X45492500Y-24635000D02*
X45492500Y-23365000D01*
X45492500Y-23365000D02*
X46445000Y-23365000D01*
X46445000Y-24635000D02*
X46445000Y-23365000D01*
X45492500Y-24635000D02*
X46445000Y-24635000D01*
X37555000Y-24635000D02*
X37555000Y-23365000D01*
X37555000Y-23365000D02*
X38507500Y-23365000D01*
X38507500Y-24635000D02*
X38507500Y-23365000D01*
X37555000Y-24635000D02*
X38507500Y-24635000D01*
X43587500Y-24635000D02*
X43587500Y-23365000D01*
X43587500Y-23365000D02*
X45492500Y-23365000D01*
X45492500Y-24635000D02*
X45492500Y-23365000D01*
X43587500Y-24635000D02*
X45492500Y-24635000D01*
X38507500Y-24635000D02*
X38507500Y-23365000D01*
X38507500Y-23365000D02*
X40412500Y-23365000D01*
X40412500Y-24635000D02*
X40412500Y-23365000D01*
X38507500Y-24635000D02*
X40412500Y-24635000D01*
D12*
%TO.C,F2*%
X17782000Y-18292867D02*
X17782000Y-17950333D01*
X16762000Y-18292867D02*
X16762000Y-17950333D01*
%TO.C,F1*%
X32745467Y-19251200D02*
X32402933Y-19251200D01*
X32745467Y-20271200D02*
X32402933Y-20271200D01*
%TO.C,Q2*%
X35641600Y-15341600D02*
X35641600Y-17291600D01*
X35641600Y-15341600D02*
X35641600Y-13391600D01*
X40761600Y-15341600D02*
X40761600Y-17291600D01*
X40761600Y-15341600D02*
X40761600Y-11891600D01*
%TO.C,R4*%
X19988600Y-15766522D02*
X19988600Y-16283678D01*
X18568600Y-15766522D02*
X18568600Y-16283678D01*
%TO.C,R6*%
X32741800Y-13418078D02*
X32741800Y-12900922D01*
X34161800Y-13418078D02*
X34161800Y-12900922D01*
%TO.C,R8*%
X32640200Y-16964922D02*
X32640200Y-17482078D01*
X34060200Y-16964922D02*
X34060200Y-17482078D01*
%TO.C,U5*%
X20819600Y-15189200D02*
X20819600Y-17139200D01*
X20819600Y-15189200D02*
X20819600Y-13239200D01*
X31109600Y-15189200D02*
X31109600Y-17139200D01*
X31109600Y-15189200D02*
X31109600Y-11739200D01*
%TO.C,J3*%
D13*
X37452904Y-29190647D02*
X37634333Y-29251123D01*
X37936714Y-29251123D01*
X38057666Y-29190647D01*
X38118142Y-29130171D01*
X38178619Y-29009219D01*
X38178619Y-28888266D01*
X38118142Y-28767314D01*
X38057666Y-28706838D01*
X37936714Y-28646361D01*
X37694809Y-28585885D01*
X37573857Y-28525409D01*
X37513380Y-28464933D01*
X37452904Y-28343980D01*
X37452904Y-28223028D01*
X37513380Y-28102076D01*
X37573857Y-28041600D01*
X37694809Y-27981123D01*
X37997190Y-27981123D01*
X38178619Y-28041600D01*
X39267190Y-28404457D02*
X39267190Y-29251123D01*
X38722904Y-28404457D02*
X38722904Y-29069695D01*
X38783380Y-29190647D01*
X38904333Y-29251123D01*
X39085761Y-29251123D01*
X39206714Y-29190647D01*
X39267190Y-29130171D01*
X39871952Y-29251123D02*
X39871952Y-28404457D01*
X39871952Y-28525409D02*
X39932428Y-28464933D01*
X40053380Y-28404457D01*
X40234809Y-28404457D01*
X40355761Y-28464933D01*
X40416238Y-28585885D01*
X40416238Y-29251123D01*
X40416238Y-28585885D02*
X40476714Y-28464933D01*
X40597666Y-28404457D01*
X40779095Y-28404457D01*
X40900047Y-28464933D01*
X40960523Y-28585885D01*
X40960523Y-29251123D01*
X41565285Y-29251123D02*
X41565285Y-28404457D01*
X41565285Y-28525409D02*
X41625761Y-28464933D01*
X41746714Y-28404457D01*
X41928142Y-28404457D01*
X42049095Y-28464933D01*
X42109571Y-28585885D01*
X42109571Y-29251123D01*
X42109571Y-28585885D02*
X42170047Y-28464933D01*
X42291000Y-28404457D01*
X42472428Y-28404457D01*
X42593380Y-28464933D01*
X42653857Y-28585885D01*
X42653857Y-29251123D01*
X43742428Y-29190647D02*
X43621476Y-29251123D01*
X43379571Y-29251123D01*
X43258619Y-29190647D01*
X43198142Y-29069695D01*
X43198142Y-28585885D01*
X43258619Y-28464933D01*
X43379571Y-28404457D01*
X43621476Y-28404457D01*
X43742428Y-28464933D01*
X43802904Y-28585885D01*
X43802904Y-28706838D01*
X43198142Y-28827790D01*
X44347190Y-29251123D02*
X44347190Y-28404457D01*
X44347190Y-28646361D02*
X44407666Y-28525409D01*
X44468142Y-28464933D01*
X44589095Y-28404457D01*
X44710047Y-28404457D01*
X46101000Y-28767314D02*
X47068619Y-28767314D01*
%TO.C,J7*%
X25824542Y-21300923D02*
X25219780Y-21300923D01*
X25219780Y-20030923D01*
X26792161Y-21300923D02*
X26792161Y-20635685D01*
X26731685Y-20514733D01*
X26610733Y-20454257D01*
X26368828Y-20454257D01*
X26247876Y-20514733D01*
X26792161Y-21240447D02*
X26671209Y-21300923D01*
X26368828Y-21300923D01*
X26247876Y-21240447D01*
X26187400Y-21119495D01*
X26187400Y-20998542D01*
X26247876Y-20877590D01*
X26368828Y-20817114D01*
X26671209Y-20817114D01*
X26792161Y-20756638D01*
X27396923Y-20454257D02*
X27396923Y-21300923D01*
X27396923Y-20575209D02*
X27457400Y-20514733D01*
X27578352Y-20454257D01*
X27759780Y-20454257D01*
X27880733Y-20514733D01*
X27941209Y-20635685D01*
X27941209Y-21300923D01*
X29090257Y-21300923D02*
X29090257Y-20030923D01*
X29090257Y-21240447D02*
X28969304Y-21300923D01*
X28727400Y-21300923D01*
X28606447Y-21240447D01*
X28545971Y-21179971D01*
X28485495Y-21059019D01*
X28485495Y-20696161D01*
X28545971Y-20575209D01*
X28606447Y-20514733D01*
X28727400Y-20454257D01*
X28969304Y-20454257D01*
X29090257Y-20514733D01*
X29634542Y-21240447D02*
X29755495Y-21300923D01*
X29997400Y-21300923D01*
X30118352Y-21240447D01*
X30178828Y-21119495D01*
X30178828Y-21059019D01*
X30118352Y-20938066D01*
X29997400Y-20877590D01*
X29815971Y-20877590D01*
X29695019Y-20817114D01*
X29634542Y-20696161D01*
X29634542Y-20635685D01*
X29695019Y-20514733D01*
X29815971Y-20454257D01*
X29997400Y-20454257D01*
X30118352Y-20514733D01*
X30541685Y-20454257D02*
X31025495Y-20454257D01*
X30723114Y-20030923D02*
X30723114Y-21119495D01*
X30783590Y-21240447D01*
X30904542Y-21300923D01*
X31025495Y-21300923D01*
X31448828Y-21300923D02*
X31448828Y-20454257D01*
X31448828Y-20696161D02*
X31509304Y-20575209D01*
X31569780Y-20514733D01*
X31690733Y-20454257D01*
X31811685Y-20454257D01*
X32235019Y-21179971D02*
X32295495Y-21240447D01*
X32235019Y-21300923D01*
X32174542Y-21240447D01*
X32235019Y-21179971D01*
X32235019Y-21300923D01*
X33807400Y-20817114D02*
X34775019Y-20817114D01*
X34291209Y-21300923D02*
X34291209Y-20333304D01*
%TO.C,J8*%
X25827142Y-29297923D02*
X25222380Y-29297923D01*
X25222380Y-28027923D01*
X26794761Y-29297923D02*
X26794761Y-28632685D01*
X26734285Y-28511733D01*
X26613333Y-28451257D01*
X26371428Y-28451257D01*
X26250476Y-28511733D01*
X26794761Y-29237447D02*
X26673809Y-29297923D01*
X26371428Y-29297923D01*
X26250476Y-29237447D01*
X26190000Y-29116495D01*
X26190000Y-28995542D01*
X26250476Y-28874590D01*
X26371428Y-28814114D01*
X26673809Y-28814114D01*
X26794761Y-28753638D01*
X27399523Y-28451257D02*
X27399523Y-29297923D01*
X27399523Y-28572209D02*
X27460000Y-28511733D01*
X27580952Y-28451257D01*
X27762380Y-28451257D01*
X27883333Y-28511733D01*
X27943809Y-28632685D01*
X27943809Y-29297923D01*
X29092857Y-29297923D02*
X29092857Y-28027923D01*
X29092857Y-29237447D02*
X28971904Y-29297923D01*
X28730000Y-29297923D01*
X28609047Y-29237447D01*
X28548571Y-29176971D01*
X28488095Y-29056019D01*
X28488095Y-28693161D01*
X28548571Y-28572209D01*
X28609047Y-28511733D01*
X28730000Y-28451257D01*
X28971904Y-28451257D01*
X29092857Y-28511733D01*
X29637142Y-29237447D02*
X29758095Y-29297923D01*
X30000000Y-29297923D01*
X30120952Y-29237447D01*
X30181428Y-29116495D01*
X30181428Y-29056019D01*
X30120952Y-28935066D01*
X30000000Y-28874590D01*
X29818571Y-28874590D01*
X29697619Y-28814114D01*
X29637142Y-28693161D01*
X29637142Y-28632685D01*
X29697619Y-28511733D01*
X29818571Y-28451257D01*
X30000000Y-28451257D01*
X30120952Y-28511733D01*
X30544285Y-28451257D02*
X31028095Y-28451257D01*
X30725714Y-28027923D02*
X30725714Y-29116495D01*
X30786190Y-29237447D01*
X30907142Y-29297923D01*
X31028095Y-29297923D01*
X31451428Y-29297923D02*
X31451428Y-28451257D01*
X31451428Y-28693161D02*
X31511904Y-28572209D01*
X31572380Y-28511733D01*
X31693333Y-28451257D01*
X31814285Y-28451257D01*
X32237619Y-29176971D02*
X32298095Y-29237447D01*
X32237619Y-29297923D01*
X32177142Y-29237447D01*
X32237619Y-29176971D01*
X32237619Y-29297923D01*
X33810000Y-28814114D02*
X34777619Y-28814114D01*
%TO.C,J9*%
X15450457Y-21275523D02*
X15450457Y-20005523D01*
X16176171Y-21275523D02*
X15631885Y-20549809D01*
X16176171Y-20005523D02*
X15450457Y-20731238D01*
X17385695Y-21275523D02*
X16659980Y-21275523D01*
X17022838Y-21275523D02*
X17022838Y-20005523D01*
X16901885Y-20186952D01*
X16780933Y-20307904D01*
X16659980Y-20368380D01*
X18534742Y-20005523D02*
X17929980Y-20005523D01*
X17869504Y-20610285D01*
X17929980Y-20549809D01*
X18050933Y-20489333D01*
X18353314Y-20489333D01*
X18474266Y-20549809D01*
X18534742Y-20610285D01*
X18595219Y-20731238D01*
X18595219Y-21033619D01*
X18534742Y-21154571D01*
X18474266Y-21215047D01*
X18353314Y-21275523D01*
X18050933Y-21275523D01*
X17929980Y-21215047D01*
X17869504Y-21154571D01*
X20107123Y-20791714D02*
X21074742Y-20791714D01*
X20590933Y-21275523D02*
X20590933Y-20307904D01*
%TO.C,J10*%
X15120257Y-29454323D02*
X15120257Y-28184323D01*
X15845971Y-29454323D02*
X15301685Y-28728609D01*
X15845971Y-28184323D02*
X15120257Y-28910038D01*
X17055495Y-29454323D02*
X16329780Y-29454323D01*
X16692638Y-29454323D02*
X16692638Y-28184323D01*
X16571685Y-28365752D01*
X16450733Y-28486704D01*
X16329780Y-28547180D01*
X18204542Y-28184323D02*
X17599780Y-28184323D01*
X17539304Y-28789085D01*
X17599780Y-28728609D01*
X17720733Y-28668133D01*
X18023114Y-28668133D01*
X18144066Y-28728609D01*
X18204542Y-28789085D01*
X18265019Y-28910038D01*
X18265019Y-29212419D01*
X18204542Y-29333371D01*
X18144066Y-29393847D01*
X18023114Y-29454323D01*
X17720733Y-29454323D01*
X17599780Y-29393847D01*
X17539304Y-29333371D01*
X19776923Y-28970514D02*
X20744542Y-28970514D01*
%TO.C,J11*%
X37198904Y-21316647D02*
X37380333Y-21377123D01*
X37682714Y-21377123D01*
X37803666Y-21316647D01*
X37864142Y-21256171D01*
X37924619Y-21135219D01*
X37924619Y-21014266D01*
X37864142Y-20893314D01*
X37803666Y-20832838D01*
X37682714Y-20772361D01*
X37440809Y-20711885D01*
X37319857Y-20651409D01*
X37259380Y-20590933D01*
X37198904Y-20469980D01*
X37198904Y-20349028D01*
X37259380Y-20228076D01*
X37319857Y-20167600D01*
X37440809Y-20107123D01*
X37743190Y-20107123D01*
X37924619Y-20167600D01*
X39013190Y-20530457D02*
X39013190Y-21377123D01*
X38468904Y-20530457D02*
X38468904Y-21195695D01*
X38529380Y-21316647D01*
X38650333Y-21377123D01*
X38831761Y-21377123D01*
X38952714Y-21316647D01*
X39013190Y-21256171D01*
X39617952Y-21377123D02*
X39617952Y-20530457D01*
X39617952Y-20651409D02*
X39678428Y-20590933D01*
X39799380Y-20530457D01*
X39980809Y-20530457D01*
X40101761Y-20590933D01*
X40162238Y-20711885D01*
X40162238Y-21377123D01*
X40162238Y-20711885D02*
X40222714Y-20590933D01*
X40343666Y-20530457D01*
X40525095Y-20530457D01*
X40646047Y-20590933D01*
X40706523Y-20711885D01*
X40706523Y-21377123D01*
X41311285Y-21377123D02*
X41311285Y-20530457D01*
X41311285Y-20651409D02*
X41371761Y-20590933D01*
X41492714Y-20530457D01*
X41674142Y-20530457D01*
X41795095Y-20590933D01*
X41855571Y-20711885D01*
X41855571Y-21377123D01*
X41855571Y-20711885D02*
X41916047Y-20590933D01*
X42037000Y-20530457D01*
X42218428Y-20530457D01*
X42339380Y-20590933D01*
X42399857Y-20711885D01*
X42399857Y-21377123D01*
X43488428Y-21316647D02*
X43367476Y-21377123D01*
X43125571Y-21377123D01*
X43004619Y-21316647D01*
X42944142Y-21195695D01*
X42944142Y-20711885D01*
X43004619Y-20590933D01*
X43125571Y-20530457D01*
X43367476Y-20530457D01*
X43488428Y-20590933D01*
X43548904Y-20711885D01*
X43548904Y-20832838D01*
X42944142Y-20953790D01*
X44093190Y-21377123D02*
X44093190Y-20530457D01*
X44093190Y-20772361D02*
X44153666Y-20651409D01*
X44214142Y-20590933D01*
X44335095Y-20530457D01*
X44456047Y-20530457D01*
X45847000Y-20893314D02*
X46814619Y-20893314D01*
X46330809Y-21377123D02*
X46330809Y-20409504D01*
%TO.C,F2*%
X15770571Y-18454933D02*
X15770571Y-18788266D01*
X16294380Y-18788266D02*
X15294380Y-18788266D01*
X15294380Y-18312076D01*
X15389619Y-17978742D02*
X15342000Y-17931123D01*
X15294380Y-17835885D01*
X15294380Y-17597790D01*
X15342000Y-17502552D01*
X15389619Y-17454933D01*
X15484857Y-17407314D01*
X15580095Y-17407314D01*
X15722952Y-17454933D01*
X16294380Y-18026361D01*
X16294380Y-17407314D01*
%TO.C,F1*%
X32331066Y-19384971D02*
X31997733Y-19384971D01*
X31997733Y-19908780D02*
X31997733Y-18908780D01*
X32473923Y-18908780D01*
X33378685Y-19908780D02*
X32807257Y-19908780D01*
X33092971Y-19908780D02*
X33092971Y-18908780D01*
X32997733Y-19051638D01*
X32902495Y-19146876D01*
X32807257Y-19194495D01*
%TO.C,H6*%
X44238095Y-45252380D02*
X44238095Y-44252380D01*
X44238095Y-44728571D02*
X44809523Y-44728571D01*
X44809523Y-45252380D02*
X44809523Y-44252380D01*
X45714285Y-44252380D02*
X45523809Y-44252380D01*
X45428571Y-44300000D01*
X45380952Y-44347619D01*
X45285714Y-44490476D01*
X45238095Y-44680952D01*
X45238095Y-45061904D01*
X45285714Y-45157142D01*
X45333333Y-45204761D01*
X45428571Y-45252380D01*
X45619047Y-45252380D01*
X45714285Y-45204761D01*
X45761904Y-45157142D01*
X45809523Y-45061904D01*
X45809523Y-44823809D01*
X45761904Y-44728571D01*
X45714285Y-44680952D01*
X45619047Y-44633333D01*
X45428571Y-44633333D01*
X45333333Y-44680952D01*
X45285714Y-44728571D01*
X45238095Y-44823809D01*
%TO.C,H5*%
X12238095Y-45252380D02*
X12238095Y-44252380D01*
X12238095Y-44728571D02*
X12809523Y-44728571D01*
X12809523Y-45252380D02*
X12809523Y-44252380D01*
X13761904Y-44252380D02*
X13285714Y-44252380D01*
X13238095Y-44728571D01*
X13285714Y-44680952D01*
X13380952Y-44633333D01*
X13619047Y-44633333D01*
X13714285Y-44680952D01*
X13761904Y-44728571D01*
X13809523Y-44823809D01*
X13809523Y-45061904D01*
X13761904Y-45157142D01*
X13714285Y-45204761D01*
X13619047Y-45252380D01*
X13380952Y-45252380D01*
X13285714Y-45204761D01*
X13238095Y-45157142D01*
%TO.C,H1*%
X12238095Y-9652380D02*
X12238095Y-8652380D01*
X12238095Y-9128571D02*
X12809523Y-9128571D01*
X12809523Y-9652380D02*
X12809523Y-8652380D01*
X13809523Y-9652380D02*
X13238095Y-9652380D01*
X13523809Y-9652380D02*
X13523809Y-8652380D01*
X13428571Y-8795238D01*
X13333333Y-8890476D01*
X13238095Y-8938095D01*
%TO.C,H2*%
X12238095Y-61652380D02*
X12238095Y-60652380D01*
X12238095Y-61128571D02*
X12809523Y-61128571D01*
X12809523Y-61652380D02*
X12809523Y-60652380D01*
X13238095Y-60747619D02*
X13285714Y-60700000D01*
X13380952Y-60652380D01*
X13619047Y-60652380D01*
X13714285Y-60700000D01*
X13761904Y-60747619D01*
X13809523Y-60842857D01*
X13809523Y-60938095D01*
X13761904Y-61080952D01*
X13190476Y-61652380D01*
X13809523Y-61652380D01*
%TO.C,H3*%
X44238095Y-9652380D02*
X44238095Y-8652380D01*
X44238095Y-9128571D02*
X44809523Y-9128571D01*
X44809523Y-9652380D02*
X44809523Y-8652380D01*
X45190476Y-8652380D02*
X45809523Y-8652380D01*
X45476190Y-9033333D01*
X45619047Y-9033333D01*
X45714285Y-9080952D01*
X45761904Y-9128571D01*
X45809523Y-9223809D01*
X45809523Y-9461904D01*
X45761904Y-9557142D01*
X45714285Y-9604761D01*
X45619047Y-9652380D01*
X45333333Y-9652380D01*
X45238095Y-9604761D01*
X45190476Y-9557142D01*
%TO.C,H4*%
X44238095Y-61652380D02*
X44238095Y-60652380D01*
X44238095Y-61128571D02*
X44809523Y-61128571D01*
X44809523Y-61652380D02*
X44809523Y-60652380D01*
X45714285Y-60985714D02*
X45714285Y-61652380D01*
X45476190Y-60604761D02*
X45238095Y-61319047D01*
X45857142Y-61319047D01*
%TO.C,Q2*%
X42149219Y-15436838D02*
X42101600Y-15532076D01*
X42006361Y-15627314D01*
X41863504Y-15770171D01*
X41815885Y-15865409D01*
X41815885Y-15960647D01*
X42053980Y-15913028D02*
X42006361Y-16008266D01*
X41911123Y-16103504D01*
X41720647Y-16151123D01*
X41387314Y-16151123D01*
X41196838Y-16103504D01*
X41101600Y-16008266D01*
X41053980Y-15913028D01*
X41053980Y-15722552D01*
X41101600Y-15627314D01*
X41196838Y-15532076D01*
X41387314Y-15484457D01*
X41720647Y-15484457D01*
X41911123Y-15532076D01*
X42006361Y-15627314D01*
X42053980Y-15722552D01*
X42053980Y-15913028D01*
X41149219Y-15103504D02*
X41101600Y-15055885D01*
X41053980Y-14960647D01*
X41053980Y-14722552D01*
X41101600Y-14627314D01*
X41149219Y-14579695D01*
X41244457Y-14532076D01*
X41339695Y-14532076D01*
X41482552Y-14579695D01*
X42053980Y-15151123D01*
X42053980Y-14532076D01*
%TO.C,R4*%
X21380980Y-16191766D02*
X20904790Y-16525100D01*
X21380980Y-16763195D02*
X20380980Y-16763195D01*
X20380980Y-16382242D01*
X20428600Y-16287004D01*
X20476219Y-16239385D01*
X20571457Y-16191766D01*
X20714314Y-16191766D01*
X20809552Y-16239385D01*
X20857171Y-16287004D01*
X20904790Y-16382242D01*
X20904790Y-16763195D01*
X20714314Y-15334623D02*
X21380980Y-15334623D01*
X20333361Y-15572719D02*
X21047647Y-15810814D01*
X21047647Y-15191766D01*
%TO.C,R6*%
X32254180Y-13326166D02*
X31777990Y-13659500D01*
X32254180Y-13897595D02*
X31254180Y-13897595D01*
X31254180Y-13516642D01*
X31301800Y-13421404D01*
X31349419Y-13373785D01*
X31444657Y-13326166D01*
X31587514Y-13326166D01*
X31682752Y-13373785D01*
X31730371Y-13421404D01*
X31777990Y-13516642D01*
X31777990Y-13897595D01*
X31254180Y-12469023D02*
X31254180Y-12659500D01*
X31301800Y-12754738D01*
X31349419Y-12802357D01*
X31492276Y-12897595D01*
X31682752Y-12945214D01*
X32063704Y-12945214D01*
X32158942Y-12897595D01*
X32206561Y-12849976D01*
X32254180Y-12754738D01*
X32254180Y-12564261D01*
X32206561Y-12469023D01*
X32158942Y-12421404D01*
X32063704Y-12373785D01*
X31825609Y-12373785D01*
X31730371Y-12421404D01*
X31682752Y-12469023D01*
X31635133Y-12564261D01*
X31635133Y-12754738D01*
X31682752Y-12849976D01*
X31730371Y-12897595D01*
X31825609Y-12945214D01*
%TO.C,R8*%
X35452580Y-17390166D02*
X34976390Y-17723500D01*
X35452580Y-17961595D02*
X34452580Y-17961595D01*
X34452580Y-17580642D01*
X34500200Y-17485404D01*
X34547819Y-17437785D01*
X34643057Y-17390166D01*
X34785914Y-17390166D01*
X34881152Y-17437785D01*
X34928771Y-17485404D01*
X34976390Y-17580642D01*
X34976390Y-17961595D01*
X34881152Y-16818738D02*
X34833533Y-16913976D01*
X34785914Y-16961595D01*
X34690676Y-17009214D01*
X34643057Y-17009214D01*
X34547819Y-16961595D01*
X34500200Y-16913976D01*
X34452580Y-16818738D01*
X34452580Y-16628261D01*
X34500200Y-16533023D01*
X34547819Y-16485404D01*
X34643057Y-16437785D01*
X34690676Y-16437785D01*
X34785914Y-16485404D01*
X34833533Y-16533023D01*
X34881152Y-16628261D01*
X34881152Y-16818738D01*
X34928771Y-16913976D01*
X34976390Y-16961595D01*
X35071628Y-17009214D01*
X35262104Y-17009214D01*
X35357342Y-16961595D01*
X35404961Y-16913976D01*
X35452580Y-16818738D01*
X35452580Y-16628261D01*
X35404961Y-16533023D01*
X35357342Y-16485404D01*
X35262104Y-16437785D01*
X35071628Y-16437785D01*
X34976390Y-16485404D01*
X34928771Y-16533023D01*
X34881152Y-16628261D01*
%TO.C,U5*%
X31401980Y-15951104D02*
X32211504Y-15951104D01*
X32306742Y-15903485D01*
X32354361Y-15855866D01*
X32401980Y-15760628D01*
X32401980Y-15570152D01*
X32354361Y-15474914D01*
X32306742Y-15427295D01*
X32211504Y-15379676D01*
X31401980Y-15379676D01*
X31401980Y-14427295D02*
X31401980Y-14903485D01*
X31878171Y-14951104D01*
X31830552Y-14903485D01*
X31782933Y-14808247D01*
X31782933Y-14570152D01*
X31830552Y-14474914D01*
X31878171Y-14427295D01*
X31973409Y-14379676D01*
X32211504Y-14379676D01*
X32306742Y-14427295D01*
X32354361Y-14474914D01*
X32401980Y-14570152D01*
X32401980Y-14808247D01*
X32354361Y-14903485D01*
X32306742Y-14951104D01*
%TD*%
M02*
