%TF.GenerationSoftware,KiCad,Pcbnew,(5.1.5)-3*%
%TF.CreationDate,2021-03-01T19:21:26+01:00*%
%TF.ProjectId,LandstromWarnung,4c616e64-7374-4726-9f6d-5761726e756e,rev?*%
%TF.SameCoordinates,Original*%
%TF.FileFunction,Paste,Top*%
%TF.FilePolarity,Positive*%
%FSLAX46Y46*%
G04 Gerber Fmt 4.6, Leading zero omitted, Abs format (unit mm)*
G04 Created by KiCad (PCBNEW (5.1.5)-3) date 2021-03-01 19:21:26*
%MOMM*%
%LPD*%
G04 APERTURE LIST*
%ADD10O,3.000000X2.000000*%
%ADD11C,0.100000*%
G04 APERTURE END LIST*
D10*
%TO.C,J3*%
X44500000Y-32000000D03*
X39500000Y-32000000D03*
%TD*%
%TO.C,J7*%
X32500000Y-24000000D03*
X27500000Y-24000000D03*
%TD*%
%TO.C,J8*%
X32500000Y-32000000D03*
X27500000Y-32000000D03*
%TD*%
%TO.C,J9*%
X20500000Y-24000000D03*
X15500000Y-24000000D03*
%TD*%
%TO.C,J10*%
X20500000Y-32000000D03*
X15500000Y-32000000D03*
%TD*%
%TO.C,J11*%
X44500000Y-24000000D03*
X39500000Y-24000000D03*
%TD*%
D11*
%TO.C,F2*%
G36*
X17532779Y-16722744D02*
G01*
X17555834Y-16726163D01*
X17578443Y-16731827D01*
X17600387Y-16739679D01*
X17621457Y-16749644D01*
X17641448Y-16761626D01*
X17660168Y-16775510D01*
X17677438Y-16791162D01*
X17693090Y-16808432D01*
X17706974Y-16827152D01*
X17718956Y-16847143D01*
X17728921Y-16868213D01*
X17736773Y-16890157D01*
X17742437Y-16912766D01*
X17745856Y-16935821D01*
X17747000Y-16959100D01*
X17747000Y-17534100D01*
X17745856Y-17557379D01*
X17742437Y-17580434D01*
X17736773Y-17603043D01*
X17728921Y-17624987D01*
X17718956Y-17646057D01*
X17706974Y-17666048D01*
X17693090Y-17684768D01*
X17677438Y-17702038D01*
X17660168Y-17717690D01*
X17641448Y-17731574D01*
X17621457Y-17743556D01*
X17600387Y-17753521D01*
X17578443Y-17761373D01*
X17555834Y-17767037D01*
X17532779Y-17770456D01*
X17509500Y-17771600D01*
X17034500Y-17771600D01*
X17011221Y-17770456D01*
X16988166Y-17767037D01*
X16965557Y-17761373D01*
X16943613Y-17753521D01*
X16922543Y-17743556D01*
X16902552Y-17731574D01*
X16883832Y-17717690D01*
X16866562Y-17702038D01*
X16850910Y-17684768D01*
X16837026Y-17666048D01*
X16825044Y-17646057D01*
X16815079Y-17624987D01*
X16807227Y-17603043D01*
X16801563Y-17580434D01*
X16798144Y-17557379D01*
X16797000Y-17534100D01*
X16797000Y-16959100D01*
X16798144Y-16935821D01*
X16801563Y-16912766D01*
X16807227Y-16890157D01*
X16815079Y-16868213D01*
X16825044Y-16847143D01*
X16837026Y-16827152D01*
X16850910Y-16808432D01*
X16866562Y-16791162D01*
X16883832Y-16775510D01*
X16902552Y-16761626D01*
X16922543Y-16749644D01*
X16943613Y-16739679D01*
X16965557Y-16731827D01*
X16988166Y-16726163D01*
X17011221Y-16722744D01*
X17034500Y-16721600D01*
X17509500Y-16721600D01*
X17532779Y-16722744D01*
G37*
G36*
X17532779Y-18472744D02*
G01*
X17555834Y-18476163D01*
X17578443Y-18481827D01*
X17600387Y-18489679D01*
X17621457Y-18499644D01*
X17641448Y-18511626D01*
X17660168Y-18525510D01*
X17677438Y-18541162D01*
X17693090Y-18558432D01*
X17706974Y-18577152D01*
X17718956Y-18597143D01*
X17728921Y-18618213D01*
X17736773Y-18640157D01*
X17742437Y-18662766D01*
X17745856Y-18685821D01*
X17747000Y-18709100D01*
X17747000Y-19284100D01*
X17745856Y-19307379D01*
X17742437Y-19330434D01*
X17736773Y-19353043D01*
X17728921Y-19374987D01*
X17718956Y-19396057D01*
X17706974Y-19416048D01*
X17693090Y-19434768D01*
X17677438Y-19452038D01*
X17660168Y-19467690D01*
X17641448Y-19481574D01*
X17621457Y-19493556D01*
X17600387Y-19503521D01*
X17578443Y-19511373D01*
X17555834Y-19517037D01*
X17532779Y-19520456D01*
X17509500Y-19521600D01*
X17034500Y-19521600D01*
X17011221Y-19520456D01*
X16988166Y-19517037D01*
X16965557Y-19511373D01*
X16943613Y-19503521D01*
X16922543Y-19493556D01*
X16902552Y-19481574D01*
X16883832Y-19467690D01*
X16866562Y-19452038D01*
X16850910Y-19434768D01*
X16837026Y-19416048D01*
X16825044Y-19396057D01*
X16815079Y-19374987D01*
X16807227Y-19353043D01*
X16801563Y-19330434D01*
X16798144Y-19307379D01*
X16797000Y-19284100D01*
X16797000Y-18709100D01*
X16798144Y-18685821D01*
X16801563Y-18662766D01*
X16807227Y-18640157D01*
X16815079Y-18618213D01*
X16825044Y-18597143D01*
X16837026Y-18577152D01*
X16850910Y-18558432D01*
X16866562Y-18541162D01*
X16883832Y-18525510D01*
X16902552Y-18511626D01*
X16922543Y-18499644D01*
X16943613Y-18489679D01*
X16965557Y-18481827D01*
X16988166Y-18476163D01*
X17011221Y-18472744D01*
X17034500Y-18471600D01*
X17509500Y-18471600D01*
X17532779Y-18472744D01*
G37*
%TD*%
%TO.C,F1*%
G36*
X32009979Y-19287344D02*
G01*
X32033034Y-19290763D01*
X32055643Y-19296427D01*
X32077587Y-19304279D01*
X32098657Y-19314244D01*
X32118648Y-19326226D01*
X32137368Y-19340110D01*
X32154638Y-19355762D01*
X32170290Y-19373032D01*
X32184174Y-19391752D01*
X32196156Y-19411743D01*
X32206121Y-19432813D01*
X32213973Y-19454757D01*
X32219637Y-19477366D01*
X32223056Y-19500421D01*
X32224200Y-19523700D01*
X32224200Y-19998700D01*
X32223056Y-20021979D01*
X32219637Y-20045034D01*
X32213973Y-20067643D01*
X32206121Y-20089587D01*
X32196156Y-20110657D01*
X32184174Y-20130648D01*
X32170290Y-20149368D01*
X32154638Y-20166638D01*
X32137368Y-20182290D01*
X32118648Y-20196174D01*
X32098657Y-20208156D01*
X32077587Y-20218121D01*
X32055643Y-20225973D01*
X32033034Y-20231637D01*
X32009979Y-20235056D01*
X31986700Y-20236200D01*
X31411700Y-20236200D01*
X31388421Y-20235056D01*
X31365366Y-20231637D01*
X31342757Y-20225973D01*
X31320813Y-20218121D01*
X31299743Y-20208156D01*
X31279752Y-20196174D01*
X31261032Y-20182290D01*
X31243762Y-20166638D01*
X31228110Y-20149368D01*
X31214226Y-20130648D01*
X31202244Y-20110657D01*
X31192279Y-20089587D01*
X31184427Y-20067643D01*
X31178763Y-20045034D01*
X31175344Y-20021979D01*
X31174200Y-19998700D01*
X31174200Y-19523700D01*
X31175344Y-19500421D01*
X31178763Y-19477366D01*
X31184427Y-19454757D01*
X31192279Y-19432813D01*
X31202244Y-19411743D01*
X31214226Y-19391752D01*
X31228110Y-19373032D01*
X31243762Y-19355762D01*
X31261032Y-19340110D01*
X31279752Y-19326226D01*
X31299743Y-19314244D01*
X31320813Y-19304279D01*
X31342757Y-19296427D01*
X31365366Y-19290763D01*
X31388421Y-19287344D01*
X31411700Y-19286200D01*
X31986700Y-19286200D01*
X32009979Y-19287344D01*
G37*
G36*
X33759979Y-19287344D02*
G01*
X33783034Y-19290763D01*
X33805643Y-19296427D01*
X33827587Y-19304279D01*
X33848657Y-19314244D01*
X33868648Y-19326226D01*
X33887368Y-19340110D01*
X33904638Y-19355762D01*
X33920290Y-19373032D01*
X33934174Y-19391752D01*
X33946156Y-19411743D01*
X33956121Y-19432813D01*
X33963973Y-19454757D01*
X33969637Y-19477366D01*
X33973056Y-19500421D01*
X33974200Y-19523700D01*
X33974200Y-19998700D01*
X33973056Y-20021979D01*
X33969637Y-20045034D01*
X33963973Y-20067643D01*
X33956121Y-20089587D01*
X33946156Y-20110657D01*
X33934174Y-20130648D01*
X33920290Y-20149368D01*
X33904638Y-20166638D01*
X33887368Y-20182290D01*
X33868648Y-20196174D01*
X33848657Y-20208156D01*
X33827587Y-20218121D01*
X33805643Y-20225973D01*
X33783034Y-20231637D01*
X33759979Y-20235056D01*
X33736700Y-20236200D01*
X33161700Y-20236200D01*
X33138421Y-20235056D01*
X33115366Y-20231637D01*
X33092757Y-20225973D01*
X33070813Y-20218121D01*
X33049743Y-20208156D01*
X33029752Y-20196174D01*
X33011032Y-20182290D01*
X32993762Y-20166638D01*
X32978110Y-20149368D01*
X32964226Y-20130648D01*
X32952244Y-20110657D01*
X32942279Y-20089587D01*
X32934427Y-20067643D01*
X32928763Y-20045034D01*
X32925344Y-20021979D01*
X32924200Y-19998700D01*
X32924200Y-19523700D01*
X32925344Y-19500421D01*
X32928763Y-19477366D01*
X32934427Y-19454757D01*
X32942279Y-19432813D01*
X32952244Y-19411743D01*
X32964226Y-19391752D01*
X32978110Y-19373032D01*
X32993762Y-19355762D01*
X33011032Y-19340110D01*
X33029752Y-19326226D01*
X33049743Y-19314244D01*
X33070813Y-19304279D01*
X33092757Y-19296427D01*
X33115366Y-19290763D01*
X33138421Y-19287344D01*
X33161700Y-19286200D01*
X33736700Y-19286200D01*
X33759979Y-19287344D01*
G37*
%TD*%
%TO.C,Q2*%
G36*
X40271303Y-11892322D02*
G01*
X40285864Y-11894482D01*
X40300143Y-11898059D01*
X40314003Y-11903018D01*
X40327310Y-11909312D01*
X40339936Y-11916880D01*
X40351759Y-11925648D01*
X40362666Y-11935534D01*
X40372552Y-11946441D01*
X40381320Y-11958264D01*
X40388888Y-11970890D01*
X40395182Y-11984197D01*
X40400141Y-11998057D01*
X40403718Y-12012336D01*
X40405878Y-12026897D01*
X40406600Y-12041600D01*
X40406600Y-13691600D01*
X40405878Y-13706303D01*
X40403718Y-13720864D01*
X40400141Y-13735143D01*
X40395182Y-13749003D01*
X40388888Y-13762310D01*
X40381320Y-13774936D01*
X40372552Y-13786759D01*
X40362666Y-13797666D01*
X40351759Y-13807552D01*
X40339936Y-13816320D01*
X40327310Y-13823888D01*
X40314003Y-13830182D01*
X40300143Y-13835141D01*
X40285864Y-13838718D01*
X40271303Y-13840878D01*
X40256600Y-13841600D01*
X39956600Y-13841600D01*
X39941897Y-13840878D01*
X39927336Y-13838718D01*
X39913057Y-13835141D01*
X39899197Y-13830182D01*
X39885890Y-13823888D01*
X39873264Y-13816320D01*
X39861441Y-13807552D01*
X39850534Y-13797666D01*
X39840648Y-13786759D01*
X39831880Y-13774936D01*
X39824312Y-13762310D01*
X39818018Y-13749003D01*
X39813059Y-13735143D01*
X39809482Y-13720864D01*
X39807322Y-13706303D01*
X39806600Y-13691600D01*
X39806600Y-12041600D01*
X39807322Y-12026897D01*
X39809482Y-12012336D01*
X39813059Y-11998057D01*
X39818018Y-11984197D01*
X39824312Y-11970890D01*
X39831880Y-11958264D01*
X39840648Y-11946441D01*
X39850534Y-11935534D01*
X39861441Y-11925648D01*
X39873264Y-11916880D01*
X39885890Y-11909312D01*
X39899197Y-11903018D01*
X39913057Y-11898059D01*
X39927336Y-11894482D01*
X39941897Y-11892322D01*
X39956600Y-11891600D01*
X40256600Y-11891600D01*
X40271303Y-11892322D01*
G37*
G36*
X39001303Y-11892322D02*
G01*
X39015864Y-11894482D01*
X39030143Y-11898059D01*
X39044003Y-11903018D01*
X39057310Y-11909312D01*
X39069936Y-11916880D01*
X39081759Y-11925648D01*
X39092666Y-11935534D01*
X39102552Y-11946441D01*
X39111320Y-11958264D01*
X39118888Y-11970890D01*
X39125182Y-11984197D01*
X39130141Y-11998057D01*
X39133718Y-12012336D01*
X39135878Y-12026897D01*
X39136600Y-12041600D01*
X39136600Y-13691600D01*
X39135878Y-13706303D01*
X39133718Y-13720864D01*
X39130141Y-13735143D01*
X39125182Y-13749003D01*
X39118888Y-13762310D01*
X39111320Y-13774936D01*
X39102552Y-13786759D01*
X39092666Y-13797666D01*
X39081759Y-13807552D01*
X39069936Y-13816320D01*
X39057310Y-13823888D01*
X39044003Y-13830182D01*
X39030143Y-13835141D01*
X39015864Y-13838718D01*
X39001303Y-13840878D01*
X38986600Y-13841600D01*
X38686600Y-13841600D01*
X38671897Y-13840878D01*
X38657336Y-13838718D01*
X38643057Y-13835141D01*
X38629197Y-13830182D01*
X38615890Y-13823888D01*
X38603264Y-13816320D01*
X38591441Y-13807552D01*
X38580534Y-13797666D01*
X38570648Y-13786759D01*
X38561880Y-13774936D01*
X38554312Y-13762310D01*
X38548018Y-13749003D01*
X38543059Y-13735143D01*
X38539482Y-13720864D01*
X38537322Y-13706303D01*
X38536600Y-13691600D01*
X38536600Y-12041600D01*
X38537322Y-12026897D01*
X38539482Y-12012336D01*
X38543059Y-11998057D01*
X38548018Y-11984197D01*
X38554312Y-11970890D01*
X38561880Y-11958264D01*
X38570648Y-11946441D01*
X38580534Y-11935534D01*
X38591441Y-11925648D01*
X38603264Y-11916880D01*
X38615890Y-11909312D01*
X38629197Y-11903018D01*
X38643057Y-11898059D01*
X38657336Y-11894482D01*
X38671897Y-11892322D01*
X38686600Y-11891600D01*
X38986600Y-11891600D01*
X39001303Y-11892322D01*
G37*
G36*
X37731303Y-11892322D02*
G01*
X37745864Y-11894482D01*
X37760143Y-11898059D01*
X37774003Y-11903018D01*
X37787310Y-11909312D01*
X37799936Y-11916880D01*
X37811759Y-11925648D01*
X37822666Y-11935534D01*
X37832552Y-11946441D01*
X37841320Y-11958264D01*
X37848888Y-11970890D01*
X37855182Y-11984197D01*
X37860141Y-11998057D01*
X37863718Y-12012336D01*
X37865878Y-12026897D01*
X37866600Y-12041600D01*
X37866600Y-13691600D01*
X37865878Y-13706303D01*
X37863718Y-13720864D01*
X37860141Y-13735143D01*
X37855182Y-13749003D01*
X37848888Y-13762310D01*
X37841320Y-13774936D01*
X37832552Y-13786759D01*
X37822666Y-13797666D01*
X37811759Y-13807552D01*
X37799936Y-13816320D01*
X37787310Y-13823888D01*
X37774003Y-13830182D01*
X37760143Y-13835141D01*
X37745864Y-13838718D01*
X37731303Y-13840878D01*
X37716600Y-13841600D01*
X37416600Y-13841600D01*
X37401897Y-13840878D01*
X37387336Y-13838718D01*
X37373057Y-13835141D01*
X37359197Y-13830182D01*
X37345890Y-13823888D01*
X37333264Y-13816320D01*
X37321441Y-13807552D01*
X37310534Y-13797666D01*
X37300648Y-13786759D01*
X37291880Y-13774936D01*
X37284312Y-13762310D01*
X37278018Y-13749003D01*
X37273059Y-13735143D01*
X37269482Y-13720864D01*
X37267322Y-13706303D01*
X37266600Y-13691600D01*
X37266600Y-12041600D01*
X37267322Y-12026897D01*
X37269482Y-12012336D01*
X37273059Y-11998057D01*
X37278018Y-11984197D01*
X37284312Y-11970890D01*
X37291880Y-11958264D01*
X37300648Y-11946441D01*
X37310534Y-11935534D01*
X37321441Y-11925648D01*
X37333264Y-11916880D01*
X37345890Y-11909312D01*
X37359197Y-11903018D01*
X37373057Y-11898059D01*
X37387336Y-11894482D01*
X37401897Y-11892322D01*
X37416600Y-11891600D01*
X37716600Y-11891600D01*
X37731303Y-11892322D01*
G37*
G36*
X36461303Y-11892322D02*
G01*
X36475864Y-11894482D01*
X36490143Y-11898059D01*
X36504003Y-11903018D01*
X36517310Y-11909312D01*
X36529936Y-11916880D01*
X36541759Y-11925648D01*
X36552666Y-11935534D01*
X36562552Y-11946441D01*
X36571320Y-11958264D01*
X36578888Y-11970890D01*
X36585182Y-11984197D01*
X36590141Y-11998057D01*
X36593718Y-12012336D01*
X36595878Y-12026897D01*
X36596600Y-12041600D01*
X36596600Y-13691600D01*
X36595878Y-13706303D01*
X36593718Y-13720864D01*
X36590141Y-13735143D01*
X36585182Y-13749003D01*
X36578888Y-13762310D01*
X36571320Y-13774936D01*
X36562552Y-13786759D01*
X36552666Y-13797666D01*
X36541759Y-13807552D01*
X36529936Y-13816320D01*
X36517310Y-13823888D01*
X36504003Y-13830182D01*
X36490143Y-13835141D01*
X36475864Y-13838718D01*
X36461303Y-13840878D01*
X36446600Y-13841600D01*
X36146600Y-13841600D01*
X36131897Y-13840878D01*
X36117336Y-13838718D01*
X36103057Y-13835141D01*
X36089197Y-13830182D01*
X36075890Y-13823888D01*
X36063264Y-13816320D01*
X36051441Y-13807552D01*
X36040534Y-13797666D01*
X36030648Y-13786759D01*
X36021880Y-13774936D01*
X36014312Y-13762310D01*
X36008018Y-13749003D01*
X36003059Y-13735143D01*
X35999482Y-13720864D01*
X35997322Y-13706303D01*
X35996600Y-13691600D01*
X35996600Y-12041600D01*
X35997322Y-12026897D01*
X35999482Y-12012336D01*
X36003059Y-11998057D01*
X36008018Y-11984197D01*
X36014312Y-11970890D01*
X36021880Y-11958264D01*
X36030648Y-11946441D01*
X36040534Y-11935534D01*
X36051441Y-11925648D01*
X36063264Y-11916880D01*
X36075890Y-11909312D01*
X36089197Y-11903018D01*
X36103057Y-11898059D01*
X36117336Y-11894482D01*
X36131897Y-11892322D01*
X36146600Y-11891600D01*
X36446600Y-11891600D01*
X36461303Y-11892322D01*
G37*
G36*
X36461303Y-16842322D02*
G01*
X36475864Y-16844482D01*
X36490143Y-16848059D01*
X36504003Y-16853018D01*
X36517310Y-16859312D01*
X36529936Y-16866880D01*
X36541759Y-16875648D01*
X36552666Y-16885534D01*
X36562552Y-16896441D01*
X36571320Y-16908264D01*
X36578888Y-16920890D01*
X36585182Y-16934197D01*
X36590141Y-16948057D01*
X36593718Y-16962336D01*
X36595878Y-16976897D01*
X36596600Y-16991600D01*
X36596600Y-18641600D01*
X36595878Y-18656303D01*
X36593718Y-18670864D01*
X36590141Y-18685143D01*
X36585182Y-18699003D01*
X36578888Y-18712310D01*
X36571320Y-18724936D01*
X36562552Y-18736759D01*
X36552666Y-18747666D01*
X36541759Y-18757552D01*
X36529936Y-18766320D01*
X36517310Y-18773888D01*
X36504003Y-18780182D01*
X36490143Y-18785141D01*
X36475864Y-18788718D01*
X36461303Y-18790878D01*
X36446600Y-18791600D01*
X36146600Y-18791600D01*
X36131897Y-18790878D01*
X36117336Y-18788718D01*
X36103057Y-18785141D01*
X36089197Y-18780182D01*
X36075890Y-18773888D01*
X36063264Y-18766320D01*
X36051441Y-18757552D01*
X36040534Y-18747666D01*
X36030648Y-18736759D01*
X36021880Y-18724936D01*
X36014312Y-18712310D01*
X36008018Y-18699003D01*
X36003059Y-18685143D01*
X35999482Y-18670864D01*
X35997322Y-18656303D01*
X35996600Y-18641600D01*
X35996600Y-16991600D01*
X35997322Y-16976897D01*
X35999482Y-16962336D01*
X36003059Y-16948057D01*
X36008018Y-16934197D01*
X36014312Y-16920890D01*
X36021880Y-16908264D01*
X36030648Y-16896441D01*
X36040534Y-16885534D01*
X36051441Y-16875648D01*
X36063264Y-16866880D01*
X36075890Y-16859312D01*
X36089197Y-16853018D01*
X36103057Y-16848059D01*
X36117336Y-16844482D01*
X36131897Y-16842322D01*
X36146600Y-16841600D01*
X36446600Y-16841600D01*
X36461303Y-16842322D01*
G37*
G36*
X37731303Y-16842322D02*
G01*
X37745864Y-16844482D01*
X37760143Y-16848059D01*
X37774003Y-16853018D01*
X37787310Y-16859312D01*
X37799936Y-16866880D01*
X37811759Y-16875648D01*
X37822666Y-16885534D01*
X37832552Y-16896441D01*
X37841320Y-16908264D01*
X37848888Y-16920890D01*
X37855182Y-16934197D01*
X37860141Y-16948057D01*
X37863718Y-16962336D01*
X37865878Y-16976897D01*
X37866600Y-16991600D01*
X37866600Y-18641600D01*
X37865878Y-18656303D01*
X37863718Y-18670864D01*
X37860141Y-18685143D01*
X37855182Y-18699003D01*
X37848888Y-18712310D01*
X37841320Y-18724936D01*
X37832552Y-18736759D01*
X37822666Y-18747666D01*
X37811759Y-18757552D01*
X37799936Y-18766320D01*
X37787310Y-18773888D01*
X37774003Y-18780182D01*
X37760143Y-18785141D01*
X37745864Y-18788718D01*
X37731303Y-18790878D01*
X37716600Y-18791600D01*
X37416600Y-18791600D01*
X37401897Y-18790878D01*
X37387336Y-18788718D01*
X37373057Y-18785141D01*
X37359197Y-18780182D01*
X37345890Y-18773888D01*
X37333264Y-18766320D01*
X37321441Y-18757552D01*
X37310534Y-18747666D01*
X37300648Y-18736759D01*
X37291880Y-18724936D01*
X37284312Y-18712310D01*
X37278018Y-18699003D01*
X37273059Y-18685143D01*
X37269482Y-18670864D01*
X37267322Y-18656303D01*
X37266600Y-18641600D01*
X37266600Y-16991600D01*
X37267322Y-16976897D01*
X37269482Y-16962336D01*
X37273059Y-16948057D01*
X37278018Y-16934197D01*
X37284312Y-16920890D01*
X37291880Y-16908264D01*
X37300648Y-16896441D01*
X37310534Y-16885534D01*
X37321441Y-16875648D01*
X37333264Y-16866880D01*
X37345890Y-16859312D01*
X37359197Y-16853018D01*
X37373057Y-16848059D01*
X37387336Y-16844482D01*
X37401897Y-16842322D01*
X37416600Y-16841600D01*
X37716600Y-16841600D01*
X37731303Y-16842322D01*
G37*
G36*
X39001303Y-16842322D02*
G01*
X39015864Y-16844482D01*
X39030143Y-16848059D01*
X39044003Y-16853018D01*
X39057310Y-16859312D01*
X39069936Y-16866880D01*
X39081759Y-16875648D01*
X39092666Y-16885534D01*
X39102552Y-16896441D01*
X39111320Y-16908264D01*
X39118888Y-16920890D01*
X39125182Y-16934197D01*
X39130141Y-16948057D01*
X39133718Y-16962336D01*
X39135878Y-16976897D01*
X39136600Y-16991600D01*
X39136600Y-18641600D01*
X39135878Y-18656303D01*
X39133718Y-18670864D01*
X39130141Y-18685143D01*
X39125182Y-18699003D01*
X39118888Y-18712310D01*
X39111320Y-18724936D01*
X39102552Y-18736759D01*
X39092666Y-18747666D01*
X39081759Y-18757552D01*
X39069936Y-18766320D01*
X39057310Y-18773888D01*
X39044003Y-18780182D01*
X39030143Y-18785141D01*
X39015864Y-18788718D01*
X39001303Y-18790878D01*
X38986600Y-18791600D01*
X38686600Y-18791600D01*
X38671897Y-18790878D01*
X38657336Y-18788718D01*
X38643057Y-18785141D01*
X38629197Y-18780182D01*
X38615890Y-18773888D01*
X38603264Y-18766320D01*
X38591441Y-18757552D01*
X38580534Y-18747666D01*
X38570648Y-18736759D01*
X38561880Y-18724936D01*
X38554312Y-18712310D01*
X38548018Y-18699003D01*
X38543059Y-18685143D01*
X38539482Y-18670864D01*
X38537322Y-18656303D01*
X38536600Y-18641600D01*
X38536600Y-16991600D01*
X38537322Y-16976897D01*
X38539482Y-16962336D01*
X38543059Y-16948057D01*
X38548018Y-16934197D01*
X38554312Y-16920890D01*
X38561880Y-16908264D01*
X38570648Y-16896441D01*
X38580534Y-16885534D01*
X38591441Y-16875648D01*
X38603264Y-16866880D01*
X38615890Y-16859312D01*
X38629197Y-16853018D01*
X38643057Y-16848059D01*
X38657336Y-16844482D01*
X38671897Y-16842322D01*
X38686600Y-16841600D01*
X38986600Y-16841600D01*
X39001303Y-16842322D01*
G37*
G36*
X40271303Y-16842322D02*
G01*
X40285864Y-16844482D01*
X40300143Y-16848059D01*
X40314003Y-16853018D01*
X40327310Y-16859312D01*
X40339936Y-16866880D01*
X40351759Y-16875648D01*
X40362666Y-16885534D01*
X40372552Y-16896441D01*
X40381320Y-16908264D01*
X40388888Y-16920890D01*
X40395182Y-16934197D01*
X40400141Y-16948057D01*
X40403718Y-16962336D01*
X40405878Y-16976897D01*
X40406600Y-16991600D01*
X40406600Y-18641600D01*
X40405878Y-18656303D01*
X40403718Y-18670864D01*
X40400141Y-18685143D01*
X40395182Y-18699003D01*
X40388888Y-18712310D01*
X40381320Y-18724936D01*
X40372552Y-18736759D01*
X40362666Y-18747666D01*
X40351759Y-18757552D01*
X40339936Y-18766320D01*
X40327310Y-18773888D01*
X40314003Y-18780182D01*
X40300143Y-18785141D01*
X40285864Y-18788718D01*
X40271303Y-18790878D01*
X40256600Y-18791600D01*
X39956600Y-18791600D01*
X39941897Y-18790878D01*
X39927336Y-18788718D01*
X39913057Y-18785141D01*
X39899197Y-18780182D01*
X39885890Y-18773888D01*
X39873264Y-18766320D01*
X39861441Y-18757552D01*
X39850534Y-18747666D01*
X39840648Y-18736759D01*
X39831880Y-18724936D01*
X39824312Y-18712310D01*
X39818018Y-18699003D01*
X39813059Y-18685143D01*
X39809482Y-18670864D01*
X39807322Y-18656303D01*
X39806600Y-18641600D01*
X39806600Y-16991600D01*
X39807322Y-16976897D01*
X39809482Y-16962336D01*
X39813059Y-16948057D01*
X39818018Y-16934197D01*
X39824312Y-16920890D01*
X39831880Y-16908264D01*
X39840648Y-16896441D01*
X39850534Y-16885534D01*
X39861441Y-16875648D01*
X39873264Y-16866880D01*
X39885890Y-16859312D01*
X39899197Y-16853018D01*
X39913057Y-16848059D01*
X39927336Y-16844482D01*
X39941897Y-16842322D01*
X39956600Y-16841600D01*
X40256600Y-16841600D01*
X40271303Y-16842322D01*
G37*
%TD*%
%TO.C,R4*%
G36*
X19758742Y-14601274D02*
G01*
X19782403Y-14604784D01*
X19805607Y-14610596D01*
X19828129Y-14618654D01*
X19849753Y-14628882D01*
X19870270Y-14641179D01*
X19889483Y-14655429D01*
X19907207Y-14671493D01*
X19923271Y-14689217D01*
X19937521Y-14708430D01*
X19949818Y-14728947D01*
X19960046Y-14750571D01*
X19968104Y-14773093D01*
X19973916Y-14796297D01*
X19977426Y-14819958D01*
X19978600Y-14843850D01*
X19978600Y-15331350D01*
X19977426Y-15355242D01*
X19973916Y-15378903D01*
X19968104Y-15402107D01*
X19960046Y-15424629D01*
X19949818Y-15446253D01*
X19937521Y-15466770D01*
X19923271Y-15485983D01*
X19907207Y-15503707D01*
X19889483Y-15519771D01*
X19870270Y-15534021D01*
X19849753Y-15546318D01*
X19828129Y-15556546D01*
X19805607Y-15564604D01*
X19782403Y-15570416D01*
X19758742Y-15573926D01*
X19734850Y-15575100D01*
X18822350Y-15575100D01*
X18798458Y-15573926D01*
X18774797Y-15570416D01*
X18751593Y-15564604D01*
X18729071Y-15556546D01*
X18707447Y-15546318D01*
X18686930Y-15534021D01*
X18667717Y-15519771D01*
X18649993Y-15503707D01*
X18633929Y-15485983D01*
X18619679Y-15466770D01*
X18607382Y-15446253D01*
X18597154Y-15424629D01*
X18589096Y-15402107D01*
X18583284Y-15378903D01*
X18579774Y-15355242D01*
X18578600Y-15331350D01*
X18578600Y-14843850D01*
X18579774Y-14819958D01*
X18583284Y-14796297D01*
X18589096Y-14773093D01*
X18597154Y-14750571D01*
X18607382Y-14728947D01*
X18619679Y-14708430D01*
X18633929Y-14689217D01*
X18649993Y-14671493D01*
X18667717Y-14655429D01*
X18686930Y-14641179D01*
X18707447Y-14628882D01*
X18729071Y-14618654D01*
X18751593Y-14610596D01*
X18774797Y-14604784D01*
X18798458Y-14601274D01*
X18822350Y-14600100D01*
X19734850Y-14600100D01*
X19758742Y-14601274D01*
G37*
G36*
X19758742Y-16476274D02*
G01*
X19782403Y-16479784D01*
X19805607Y-16485596D01*
X19828129Y-16493654D01*
X19849753Y-16503882D01*
X19870270Y-16516179D01*
X19889483Y-16530429D01*
X19907207Y-16546493D01*
X19923271Y-16564217D01*
X19937521Y-16583430D01*
X19949818Y-16603947D01*
X19960046Y-16625571D01*
X19968104Y-16648093D01*
X19973916Y-16671297D01*
X19977426Y-16694958D01*
X19978600Y-16718850D01*
X19978600Y-17206350D01*
X19977426Y-17230242D01*
X19973916Y-17253903D01*
X19968104Y-17277107D01*
X19960046Y-17299629D01*
X19949818Y-17321253D01*
X19937521Y-17341770D01*
X19923271Y-17360983D01*
X19907207Y-17378707D01*
X19889483Y-17394771D01*
X19870270Y-17409021D01*
X19849753Y-17421318D01*
X19828129Y-17431546D01*
X19805607Y-17439604D01*
X19782403Y-17445416D01*
X19758742Y-17448926D01*
X19734850Y-17450100D01*
X18822350Y-17450100D01*
X18798458Y-17448926D01*
X18774797Y-17445416D01*
X18751593Y-17439604D01*
X18729071Y-17431546D01*
X18707447Y-17421318D01*
X18686930Y-17409021D01*
X18667717Y-17394771D01*
X18649993Y-17378707D01*
X18633929Y-17360983D01*
X18619679Y-17341770D01*
X18607382Y-17321253D01*
X18597154Y-17299629D01*
X18589096Y-17277107D01*
X18583284Y-17253903D01*
X18579774Y-17230242D01*
X18578600Y-17206350D01*
X18578600Y-16718850D01*
X18579774Y-16694958D01*
X18583284Y-16671297D01*
X18589096Y-16648093D01*
X18597154Y-16625571D01*
X18607382Y-16603947D01*
X18619679Y-16583430D01*
X18633929Y-16564217D01*
X18649993Y-16546493D01*
X18667717Y-16530429D01*
X18686930Y-16516179D01*
X18707447Y-16503882D01*
X18729071Y-16493654D01*
X18751593Y-16485596D01*
X18774797Y-16479784D01*
X18798458Y-16476274D01*
X18822350Y-16475100D01*
X19734850Y-16475100D01*
X19758742Y-16476274D01*
G37*
%TD*%
%TO.C,R6*%
G36*
X33931942Y-13610674D02*
G01*
X33955603Y-13614184D01*
X33978807Y-13619996D01*
X34001329Y-13628054D01*
X34022953Y-13638282D01*
X34043470Y-13650579D01*
X34062683Y-13664829D01*
X34080407Y-13680893D01*
X34096471Y-13698617D01*
X34110721Y-13717830D01*
X34123018Y-13738347D01*
X34133246Y-13759971D01*
X34141304Y-13782493D01*
X34147116Y-13805697D01*
X34150626Y-13829358D01*
X34151800Y-13853250D01*
X34151800Y-14340750D01*
X34150626Y-14364642D01*
X34147116Y-14388303D01*
X34141304Y-14411507D01*
X34133246Y-14434029D01*
X34123018Y-14455653D01*
X34110721Y-14476170D01*
X34096471Y-14495383D01*
X34080407Y-14513107D01*
X34062683Y-14529171D01*
X34043470Y-14543421D01*
X34022953Y-14555718D01*
X34001329Y-14565946D01*
X33978807Y-14574004D01*
X33955603Y-14579816D01*
X33931942Y-14583326D01*
X33908050Y-14584500D01*
X32995550Y-14584500D01*
X32971658Y-14583326D01*
X32947997Y-14579816D01*
X32924793Y-14574004D01*
X32902271Y-14565946D01*
X32880647Y-14555718D01*
X32860130Y-14543421D01*
X32840917Y-14529171D01*
X32823193Y-14513107D01*
X32807129Y-14495383D01*
X32792879Y-14476170D01*
X32780582Y-14455653D01*
X32770354Y-14434029D01*
X32762296Y-14411507D01*
X32756484Y-14388303D01*
X32752974Y-14364642D01*
X32751800Y-14340750D01*
X32751800Y-13853250D01*
X32752974Y-13829358D01*
X32756484Y-13805697D01*
X32762296Y-13782493D01*
X32770354Y-13759971D01*
X32780582Y-13738347D01*
X32792879Y-13717830D01*
X32807129Y-13698617D01*
X32823193Y-13680893D01*
X32840917Y-13664829D01*
X32860130Y-13650579D01*
X32880647Y-13638282D01*
X32902271Y-13628054D01*
X32924793Y-13619996D01*
X32947997Y-13614184D01*
X32971658Y-13610674D01*
X32995550Y-13609500D01*
X33908050Y-13609500D01*
X33931942Y-13610674D01*
G37*
G36*
X33931942Y-11735674D02*
G01*
X33955603Y-11739184D01*
X33978807Y-11744996D01*
X34001329Y-11753054D01*
X34022953Y-11763282D01*
X34043470Y-11775579D01*
X34062683Y-11789829D01*
X34080407Y-11805893D01*
X34096471Y-11823617D01*
X34110721Y-11842830D01*
X34123018Y-11863347D01*
X34133246Y-11884971D01*
X34141304Y-11907493D01*
X34147116Y-11930697D01*
X34150626Y-11954358D01*
X34151800Y-11978250D01*
X34151800Y-12465750D01*
X34150626Y-12489642D01*
X34147116Y-12513303D01*
X34141304Y-12536507D01*
X34133246Y-12559029D01*
X34123018Y-12580653D01*
X34110721Y-12601170D01*
X34096471Y-12620383D01*
X34080407Y-12638107D01*
X34062683Y-12654171D01*
X34043470Y-12668421D01*
X34022953Y-12680718D01*
X34001329Y-12690946D01*
X33978807Y-12699004D01*
X33955603Y-12704816D01*
X33931942Y-12708326D01*
X33908050Y-12709500D01*
X32995550Y-12709500D01*
X32971658Y-12708326D01*
X32947997Y-12704816D01*
X32924793Y-12699004D01*
X32902271Y-12690946D01*
X32880647Y-12680718D01*
X32860130Y-12668421D01*
X32840917Y-12654171D01*
X32823193Y-12638107D01*
X32807129Y-12620383D01*
X32792879Y-12601170D01*
X32780582Y-12580653D01*
X32770354Y-12559029D01*
X32762296Y-12536507D01*
X32756484Y-12513303D01*
X32752974Y-12489642D01*
X32751800Y-12465750D01*
X32751800Y-11978250D01*
X32752974Y-11954358D01*
X32756484Y-11930697D01*
X32762296Y-11907493D01*
X32770354Y-11884971D01*
X32780582Y-11863347D01*
X32792879Y-11842830D01*
X32807129Y-11823617D01*
X32823193Y-11805893D01*
X32840917Y-11789829D01*
X32860130Y-11775579D01*
X32880647Y-11763282D01*
X32902271Y-11753054D01*
X32924793Y-11744996D01*
X32947997Y-11739184D01*
X32971658Y-11735674D01*
X32995550Y-11734500D01*
X33908050Y-11734500D01*
X33931942Y-11735674D01*
G37*
%TD*%
%TO.C,R8*%
G36*
X33830342Y-17674674D02*
G01*
X33854003Y-17678184D01*
X33877207Y-17683996D01*
X33899729Y-17692054D01*
X33921353Y-17702282D01*
X33941870Y-17714579D01*
X33961083Y-17728829D01*
X33978807Y-17744893D01*
X33994871Y-17762617D01*
X34009121Y-17781830D01*
X34021418Y-17802347D01*
X34031646Y-17823971D01*
X34039704Y-17846493D01*
X34045516Y-17869697D01*
X34049026Y-17893358D01*
X34050200Y-17917250D01*
X34050200Y-18404750D01*
X34049026Y-18428642D01*
X34045516Y-18452303D01*
X34039704Y-18475507D01*
X34031646Y-18498029D01*
X34021418Y-18519653D01*
X34009121Y-18540170D01*
X33994871Y-18559383D01*
X33978807Y-18577107D01*
X33961083Y-18593171D01*
X33941870Y-18607421D01*
X33921353Y-18619718D01*
X33899729Y-18629946D01*
X33877207Y-18638004D01*
X33854003Y-18643816D01*
X33830342Y-18647326D01*
X33806450Y-18648500D01*
X32893950Y-18648500D01*
X32870058Y-18647326D01*
X32846397Y-18643816D01*
X32823193Y-18638004D01*
X32800671Y-18629946D01*
X32779047Y-18619718D01*
X32758530Y-18607421D01*
X32739317Y-18593171D01*
X32721593Y-18577107D01*
X32705529Y-18559383D01*
X32691279Y-18540170D01*
X32678982Y-18519653D01*
X32668754Y-18498029D01*
X32660696Y-18475507D01*
X32654884Y-18452303D01*
X32651374Y-18428642D01*
X32650200Y-18404750D01*
X32650200Y-17917250D01*
X32651374Y-17893358D01*
X32654884Y-17869697D01*
X32660696Y-17846493D01*
X32668754Y-17823971D01*
X32678982Y-17802347D01*
X32691279Y-17781830D01*
X32705529Y-17762617D01*
X32721593Y-17744893D01*
X32739317Y-17728829D01*
X32758530Y-17714579D01*
X32779047Y-17702282D01*
X32800671Y-17692054D01*
X32823193Y-17683996D01*
X32846397Y-17678184D01*
X32870058Y-17674674D01*
X32893950Y-17673500D01*
X33806450Y-17673500D01*
X33830342Y-17674674D01*
G37*
G36*
X33830342Y-15799674D02*
G01*
X33854003Y-15803184D01*
X33877207Y-15808996D01*
X33899729Y-15817054D01*
X33921353Y-15827282D01*
X33941870Y-15839579D01*
X33961083Y-15853829D01*
X33978807Y-15869893D01*
X33994871Y-15887617D01*
X34009121Y-15906830D01*
X34021418Y-15927347D01*
X34031646Y-15948971D01*
X34039704Y-15971493D01*
X34045516Y-15994697D01*
X34049026Y-16018358D01*
X34050200Y-16042250D01*
X34050200Y-16529750D01*
X34049026Y-16553642D01*
X34045516Y-16577303D01*
X34039704Y-16600507D01*
X34031646Y-16623029D01*
X34021418Y-16644653D01*
X34009121Y-16665170D01*
X33994871Y-16684383D01*
X33978807Y-16702107D01*
X33961083Y-16718171D01*
X33941870Y-16732421D01*
X33921353Y-16744718D01*
X33899729Y-16754946D01*
X33877207Y-16763004D01*
X33854003Y-16768816D01*
X33830342Y-16772326D01*
X33806450Y-16773500D01*
X32893950Y-16773500D01*
X32870058Y-16772326D01*
X32846397Y-16768816D01*
X32823193Y-16763004D01*
X32800671Y-16754946D01*
X32779047Y-16744718D01*
X32758530Y-16732421D01*
X32739317Y-16718171D01*
X32721593Y-16702107D01*
X32705529Y-16684383D01*
X32691279Y-16665170D01*
X32678982Y-16644653D01*
X32668754Y-16623029D01*
X32660696Y-16600507D01*
X32654884Y-16577303D01*
X32651374Y-16553642D01*
X32650200Y-16529750D01*
X32650200Y-16042250D01*
X32651374Y-16018358D01*
X32654884Y-15994697D01*
X32660696Y-15971493D01*
X32668754Y-15948971D01*
X32678982Y-15927347D01*
X32691279Y-15906830D01*
X32705529Y-15887617D01*
X32721593Y-15869893D01*
X32739317Y-15853829D01*
X32758530Y-15839579D01*
X32779047Y-15827282D01*
X32800671Y-15817054D01*
X32823193Y-15808996D01*
X32846397Y-15803184D01*
X32870058Y-15799674D01*
X32893950Y-15798500D01*
X33806450Y-15798500D01*
X33830342Y-15799674D01*
G37*
%TD*%
%TO.C,U5*%
G36*
X30619303Y-11739922D02*
G01*
X30633864Y-11742082D01*
X30648143Y-11745659D01*
X30662003Y-11750618D01*
X30675310Y-11756912D01*
X30687936Y-11764480D01*
X30699759Y-11773248D01*
X30710666Y-11783134D01*
X30720552Y-11794041D01*
X30729320Y-11805864D01*
X30736888Y-11818490D01*
X30743182Y-11831797D01*
X30748141Y-11845657D01*
X30751718Y-11859936D01*
X30753878Y-11874497D01*
X30754600Y-11889200D01*
X30754600Y-13339200D01*
X30753878Y-13353903D01*
X30751718Y-13368464D01*
X30748141Y-13382743D01*
X30743182Y-13396603D01*
X30736888Y-13409910D01*
X30729320Y-13422536D01*
X30720552Y-13434359D01*
X30710666Y-13445266D01*
X30699759Y-13455152D01*
X30687936Y-13463920D01*
X30675310Y-13471488D01*
X30662003Y-13477782D01*
X30648143Y-13482741D01*
X30633864Y-13486318D01*
X30619303Y-13488478D01*
X30604600Y-13489200D01*
X30304600Y-13489200D01*
X30289897Y-13488478D01*
X30275336Y-13486318D01*
X30261057Y-13482741D01*
X30247197Y-13477782D01*
X30233890Y-13471488D01*
X30221264Y-13463920D01*
X30209441Y-13455152D01*
X30198534Y-13445266D01*
X30188648Y-13434359D01*
X30179880Y-13422536D01*
X30172312Y-13409910D01*
X30166018Y-13396603D01*
X30161059Y-13382743D01*
X30157482Y-13368464D01*
X30155322Y-13353903D01*
X30154600Y-13339200D01*
X30154600Y-11889200D01*
X30155322Y-11874497D01*
X30157482Y-11859936D01*
X30161059Y-11845657D01*
X30166018Y-11831797D01*
X30172312Y-11818490D01*
X30179880Y-11805864D01*
X30188648Y-11794041D01*
X30198534Y-11783134D01*
X30209441Y-11773248D01*
X30221264Y-11764480D01*
X30233890Y-11756912D01*
X30247197Y-11750618D01*
X30261057Y-11745659D01*
X30275336Y-11742082D01*
X30289897Y-11739922D01*
X30304600Y-11739200D01*
X30604600Y-11739200D01*
X30619303Y-11739922D01*
G37*
G36*
X29349303Y-11739922D02*
G01*
X29363864Y-11742082D01*
X29378143Y-11745659D01*
X29392003Y-11750618D01*
X29405310Y-11756912D01*
X29417936Y-11764480D01*
X29429759Y-11773248D01*
X29440666Y-11783134D01*
X29450552Y-11794041D01*
X29459320Y-11805864D01*
X29466888Y-11818490D01*
X29473182Y-11831797D01*
X29478141Y-11845657D01*
X29481718Y-11859936D01*
X29483878Y-11874497D01*
X29484600Y-11889200D01*
X29484600Y-13339200D01*
X29483878Y-13353903D01*
X29481718Y-13368464D01*
X29478141Y-13382743D01*
X29473182Y-13396603D01*
X29466888Y-13409910D01*
X29459320Y-13422536D01*
X29450552Y-13434359D01*
X29440666Y-13445266D01*
X29429759Y-13455152D01*
X29417936Y-13463920D01*
X29405310Y-13471488D01*
X29392003Y-13477782D01*
X29378143Y-13482741D01*
X29363864Y-13486318D01*
X29349303Y-13488478D01*
X29334600Y-13489200D01*
X29034600Y-13489200D01*
X29019897Y-13488478D01*
X29005336Y-13486318D01*
X28991057Y-13482741D01*
X28977197Y-13477782D01*
X28963890Y-13471488D01*
X28951264Y-13463920D01*
X28939441Y-13455152D01*
X28928534Y-13445266D01*
X28918648Y-13434359D01*
X28909880Y-13422536D01*
X28902312Y-13409910D01*
X28896018Y-13396603D01*
X28891059Y-13382743D01*
X28887482Y-13368464D01*
X28885322Y-13353903D01*
X28884600Y-13339200D01*
X28884600Y-11889200D01*
X28885322Y-11874497D01*
X28887482Y-11859936D01*
X28891059Y-11845657D01*
X28896018Y-11831797D01*
X28902312Y-11818490D01*
X28909880Y-11805864D01*
X28918648Y-11794041D01*
X28928534Y-11783134D01*
X28939441Y-11773248D01*
X28951264Y-11764480D01*
X28963890Y-11756912D01*
X28977197Y-11750618D01*
X28991057Y-11745659D01*
X29005336Y-11742082D01*
X29019897Y-11739922D01*
X29034600Y-11739200D01*
X29334600Y-11739200D01*
X29349303Y-11739922D01*
G37*
G36*
X28079303Y-11739922D02*
G01*
X28093864Y-11742082D01*
X28108143Y-11745659D01*
X28122003Y-11750618D01*
X28135310Y-11756912D01*
X28147936Y-11764480D01*
X28159759Y-11773248D01*
X28170666Y-11783134D01*
X28180552Y-11794041D01*
X28189320Y-11805864D01*
X28196888Y-11818490D01*
X28203182Y-11831797D01*
X28208141Y-11845657D01*
X28211718Y-11859936D01*
X28213878Y-11874497D01*
X28214600Y-11889200D01*
X28214600Y-13339200D01*
X28213878Y-13353903D01*
X28211718Y-13368464D01*
X28208141Y-13382743D01*
X28203182Y-13396603D01*
X28196888Y-13409910D01*
X28189320Y-13422536D01*
X28180552Y-13434359D01*
X28170666Y-13445266D01*
X28159759Y-13455152D01*
X28147936Y-13463920D01*
X28135310Y-13471488D01*
X28122003Y-13477782D01*
X28108143Y-13482741D01*
X28093864Y-13486318D01*
X28079303Y-13488478D01*
X28064600Y-13489200D01*
X27764600Y-13489200D01*
X27749897Y-13488478D01*
X27735336Y-13486318D01*
X27721057Y-13482741D01*
X27707197Y-13477782D01*
X27693890Y-13471488D01*
X27681264Y-13463920D01*
X27669441Y-13455152D01*
X27658534Y-13445266D01*
X27648648Y-13434359D01*
X27639880Y-13422536D01*
X27632312Y-13409910D01*
X27626018Y-13396603D01*
X27621059Y-13382743D01*
X27617482Y-13368464D01*
X27615322Y-13353903D01*
X27614600Y-13339200D01*
X27614600Y-11889200D01*
X27615322Y-11874497D01*
X27617482Y-11859936D01*
X27621059Y-11845657D01*
X27626018Y-11831797D01*
X27632312Y-11818490D01*
X27639880Y-11805864D01*
X27648648Y-11794041D01*
X27658534Y-11783134D01*
X27669441Y-11773248D01*
X27681264Y-11764480D01*
X27693890Y-11756912D01*
X27707197Y-11750618D01*
X27721057Y-11745659D01*
X27735336Y-11742082D01*
X27749897Y-11739922D01*
X27764600Y-11739200D01*
X28064600Y-11739200D01*
X28079303Y-11739922D01*
G37*
G36*
X26809303Y-11739922D02*
G01*
X26823864Y-11742082D01*
X26838143Y-11745659D01*
X26852003Y-11750618D01*
X26865310Y-11756912D01*
X26877936Y-11764480D01*
X26889759Y-11773248D01*
X26900666Y-11783134D01*
X26910552Y-11794041D01*
X26919320Y-11805864D01*
X26926888Y-11818490D01*
X26933182Y-11831797D01*
X26938141Y-11845657D01*
X26941718Y-11859936D01*
X26943878Y-11874497D01*
X26944600Y-11889200D01*
X26944600Y-13339200D01*
X26943878Y-13353903D01*
X26941718Y-13368464D01*
X26938141Y-13382743D01*
X26933182Y-13396603D01*
X26926888Y-13409910D01*
X26919320Y-13422536D01*
X26910552Y-13434359D01*
X26900666Y-13445266D01*
X26889759Y-13455152D01*
X26877936Y-13463920D01*
X26865310Y-13471488D01*
X26852003Y-13477782D01*
X26838143Y-13482741D01*
X26823864Y-13486318D01*
X26809303Y-13488478D01*
X26794600Y-13489200D01*
X26494600Y-13489200D01*
X26479897Y-13488478D01*
X26465336Y-13486318D01*
X26451057Y-13482741D01*
X26437197Y-13477782D01*
X26423890Y-13471488D01*
X26411264Y-13463920D01*
X26399441Y-13455152D01*
X26388534Y-13445266D01*
X26378648Y-13434359D01*
X26369880Y-13422536D01*
X26362312Y-13409910D01*
X26356018Y-13396603D01*
X26351059Y-13382743D01*
X26347482Y-13368464D01*
X26345322Y-13353903D01*
X26344600Y-13339200D01*
X26344600Y-11889200D01*
X26345322Y-11874497D01*
X26347482Y-11859936D01*
X26351059Y-11845657D01*
X26356018Y-11831797D01*
X26362312Y-11818490D01*
X26369880Y-11805864D01*
X26378648Y-11794041D01*
X26388534Y-11783134D01*
X26399441Y-11773248D01*
X26411264Y-11764480D01*
X26423890Y-11756912D01*
X26437197Y-11750618D01*
X26451057Y-11745659D01*
X26465336Y-11742082D01*
X26479897Y-11739922D01*
X26494600Y-11739200D01*
X26794600Y-11739200D01*
X26809303Y-11739922D01*
G37*
G36*
X26809303Y-16889922D02*
G01*
X26823864Y-16892082D01*
X26838143Y-16895659D01*
X26852003Y-16900618D01*
X26865310Y-16906912D01*
X26877936Y-16914480D01*
X26889759Y-16923248D01*
X26900666Y-16933134D01*
X26910552Y-16944041D01*
X26919320Y-16955864D01*
X26926888Y-16968490D01*
X26933182Y-16981797D01*
X26938141Y-16995657D01*
X26941718Y-17009936D01*
X26943878Y-17024497D01*
X26944600Y-17039200D01*
X26944600Y-18489200D01*
X26943878Y-18503903D01*
X26941718Y-18518464D01*
X26938141Y-18532743D01*
X26933182Y-18546603D01*
X26926888Y-18559910D01*
X26919320Y-18572536D01*
X26910552Y-18584359D01*
X26900666Y-18595266D01*
X26889759Y-18605152D01*
X26877936Y-18613920D01*
X26865310Y-18621488D01*
X26852003Y-18627782D01*
X26838143Y-18632741D01*
X26823864Y-18636318D01*
X26809303Y-18638478D01*
X26794600Y-18639200D01*
X26494600Y-18639200D01*
X26479897Y-18638478D01*
X26465336Y-18636318D01*
X26451057Y-18632741D01*
X26437197Y-18627782D01*
X26423890Y-18621488D01*
X26411264Y-18613920D01*
X26399441Y-18605152D01*
X26388534Y-18595266D01*
X26378648Y-18584359D01*
X26369880Y-18572536D01*
X26362312Y-18559910D01*
X26356018Y-18546603D01*
X26351059Y-18532743D01*
X26347482Y-18518464D01*
X26345322Y-18503903D01*
X26344600Y-18489200D01*
X26344600Y-17039200D01*
X26345322Y-17024497D01*
X26347482Y-17009936D01*
X26351059Y-16995657D01*
X26356018Y-16981797D01*
X26362312Y-16968490D01*
X26369880Y-16955864D01*
X26378648Y-16944041D01*
X26388534Y-16933134D01*
X26399441Y-16923248D01*
X26411264Y-16914480D01*
X26423890Y-16906912D01*
X26437197Y-16900618D01*
X26451057Y-16895659D01*
X26465336Y-16892082D01*
X26479897Y-16889922D01*
X26494600Y-16889200D01*
X26794600Y-16889200D01*
X26809303Y-16889922D01*
G37*
G36*
X28079303Y-16889922D02*
G01*
X28093864Y-16892082D01*
X28108143Y-16895659D01*
X28122003Y-16900618D01*
X28135310Y-16906912D01*
X28147936Y-16914480D01*
X28159759Y-16923248D01*
X28170666Y-16933134D01*
X28180552Y-16944041D01*
X28189320Y-16955864D01*
X28196888Y-16968490D01*
X28203182Y-16981797D01*
X28208141Y-16995657D01*
X28211718Y-17009936D01*
X28213878Y-17024497D01*
X28214600Y-17039200D01*
X28214600Y-18489200D01*
X28213878Y-18503903D01*
X28211718Y-18518464D01*
X28208141Y-18532743D01*
X28203182Y-18546603D01*
X28196888Y-18559910D01*
X28189320Y-18572536D01*
X28180552Y-18584359D01*
X28170666Y-18595266D01*
X28159759Y-18605152D01*
X28147936Y-18613920D01*
X28135310Y-18621488D01*
X28122003Y-18627782D01*
X28108143Y-18632741D01*
X28093864Y-18636318D01*
X28079303Y-18638478D01*
X28064600Y-18639200D01*
X27764600Y-18639200D01*
X27749897Y-18638478D01*
X27735336Y-18636318D01*
X27721057Y-18632741D01*
X27707197Y-18627782D01*
X27693890Y-18621488D01*
X27681264Y-18613920D01*
X27669441Y-18605152D01*
X27658534Y-18595266D01*
X27648648Y-18584359D01*
X27639880Y-18572536D01*
X27632312Y-18559910D01*
X27626018Y-18546603D01*
X27621059Y-18532743D01*
X27617482Y-18518464D01*
X27615322Y-18503903D01*
X27614600Y-18489200D01*
X27614600Y-17039200D01*
X27615322Y-17024497D01*
X27617482Y-17009936D01*
X27621059Y-16995657D01*
X27626018Y-16981797D01*
X27632312Y-16968490D01*
X27639880Y-16955864D01*
X27648648Y-16944041D01*
X27658534Y-16933134D01*
X27669441Y-16923248D01*
X27681264Y-16914480D01*
X27693890Y-16906912D01*
X27707197Y-16900618D01*
X27721057Y-16895659D01*
X27735336Y-16892082D01*
X27749897Y-16889922D01*
X27764600Y-16889200D01*
X28064600Y-16889200D01*
X28079303Y-16889922D01*
G37*
G36*
X29349303Y-16889922D02*
G01*
X29363864Y-16892082D01*
X29378143Y-16895659D01*
X29392003Y-16900618D01*
X29405310Y-16906912D01*
X29417936Y-16914480D01*
X29429759Y-16923248D01*
X29440666Y-16933134D01*
X29450552Y-16944041D01*
X29459320Y-16955864D01*
X29466888Y-16968490D01*
X29473182Y-16981797D01*
X29478141Y-16995657D01*
X29481718Y-17009936D01*
X29483878Y-17024497D01*
X29484600Y-17039200D01*
X29484600Y-18489200D01*
X29483878Y-18503903D01*
X29481718Y-18518464D01*
X29478141Y-18532743D01*
X29473182Y-18546603D01*
X29466888Y-18559910D01*
X29459320Y-18572536D01*
X29450552Y-18584359D01*
X29440666Y-18595266D01*
X29429759Y-18605152D01*
X29417936Y-18613920D01*
X29405310Y-18621488D01*
X29392003Y-18627782D01*
X29378143Y-18632741D01*
X29363864Y-18636318D01*
X29349303Y-18638478D01*
X29334600Y-18639200D01*
X29034600Y-18639200D01*
X29019897Y-18638478D01*
X29005336Y-18636318D01*
X28991057Y-18632741D01*
X28977197Y-18627782D01*
X28963890Y-18621488D01*
X28951264Y-18613920D01*
X28939441Y-18605152D01*
X28928534Y-18595266D01*
X28918648Y-18584359D01*
X28909880Y-18572536D01*
X28902312Y-18559910D01*
X28896018Y-18546603D01*
X28891059Y-18532743D01*
X28887482Y-18518464D01*
X28885322Y-18503903D01*
X28884600Y-18489200D01*
X28884600Y-17039200D01*
X28885322Y-17024497D01*
X28887482Y-17009936D01*
X28891059Y-16995657D01*
X28896018Y-16981797D01*
X28902312Y-16968490D01*
X28909880Y-16955864D01*
X28918648Y-16944041D01*
X28928534Y-16933134D01*
X28939441Y-16923248D01*
X28951264Y-16914480D01*
X28963890Y-16906912D01*
X28977197Y-16900618D01*
X28991057Y-16895659D01*
X29005336Y-16892082D01*
X29019897Y-16889922D01*
X29034600Y-16889200D01*
X29334600Y-16889200D01*
X29349303Y-16889922D01*
G37*
G36*
X30619303Y-16889922D02*
G01*
X30633864Y-16892082D01*
X30648143Y-16895659D01*
X30662003Y-16900618D01*
X30675310Y-16906912D01*
X30687936Y-16914480D01*
X30699759Y-16923248D01*
X30710666Y-16933134D01*
X30720552Y-16944041D01*
X30729320Y-16955864D01*
X30736888Y-16968490D01*
X30743182Y-16981797D01*
X30748141Y-16995657D01*
X30751718Y-17009936D01*
X30753878Y-17024497D01*
X30754600Y-17039200D01*
X30754600Y-18489200D01*
X30753878Y-18503903D01*
X30751718Y-18518464D01*
X30748141Y-18532743D01*
X30743182Y-18546603D01*
X30736888Y-18559910D01*
X30729320Y-18572536D01*
X30720552Y-18584359D01*
X30710666Y-18595266D01*
X30699759Y-18605152D01*
X30687936Y-18613920D01*
X30675310Y-18621488D01*
X30662003Y-18627782D01*
X30648143Y-18632741D01*
X30633864Y-18636318D01*
X30619303Y-18638478D01*
X30604600Y-18639200D01*
X30304600Y-18639200D01*
X30289897Y-18638478D01*
X30275336Y-18636318D01*
X30261057Y-18632741D01*
X30247197Y-18627782D01*
X30233890Y-18621488D01*
X30221264Y-18613920D01*
X30209441Y-18605152D01*
X30198534Y-18595266D01*
X30188648Y-18584359D01*
X30179880Y-18572536D01*
X30172312Y-18559910D01*
X30166018Y-18546603D01*
X30161059Y-18532743D01*
X30157482Y-18518464D01*
X30155322Y-18503903D01*
X30154600Y-18489200D01*
X30154600Y-17039200D01*
X30155322Y-17024497D01*
X30157482Y-17009936D01*
X30161059Y-16995657D01*
X30166018Y-16981797D01*
X30172312Y-16968490D01*
X30179880Y-16955864D01*
X30188648Y-16944041D01*
X30198534Y-16933134D01*
X30209441Y-16923248D01*
X30221264Y-16914480D01*
X30233890Y-16906912D01*
X30247197Y-16900618D01*
X30261057Y-16895659D01*
X30275336Y-16892082D01*
X30289897Y-16889922D01*
X30304600Y-16889200D01*
X30604600Y-16889200D01*
X30619303Y-16889922D01*
G37*
G36*
X25539303Y-11739922D02*
G01*
X25553864Y-11742082D01*
X25568143Y-11745659D01*
X25582003Y-11750618D01*
X25595310Y-11756912D01*
X25607936Y-11764480D01*
X25619759Y-11773248D01*
X25630666Y-11783134D01*
X25640552Y-11794041D01*
X25649320Y-11805864D01*
X25656888Y-11818490D01*
X25663182Y-11831797D01*
X25668141Y-11845657D01*
X25671718Y-11859936D01*
X25673878Y-11874497D01*
X25674600Y-11889200D01*
X25674600Y-13339200D01*
X25673878Y-13353903D01*
X25671718Y-13368464D01*
X25668141Y-13382743D01*
X25663182Y-13396603D01*
X25656888Y-13409910D01*
X25649320Y-13422536D01*
X25640552Y-13434359D01*
X25630666Y-13445266D01*
X25619759Y-13455152D01*
X25607936Y-13463920D01*
X25595310Y-13471488D01*
X25582003Y-13477782D01*
X25568143Y-13482741D01*
X25553864Y-13486318D01*
X25539303Y-13488478D01*
X25524600Y-13489200D01*
X25224600Y-13489200D01*
X25209897Y-13488478D01*
X25195336Y-13486318D01*
X25181057Y-13482741D01*
X25167197Y-13477782D01*
X25153890Y-13471488D01*
X25141264Y-13463920D01*
X25129441Y-13455152D01*
X25118534Y-13445266D01*
X25108648Y-13434359D01*
X25099880Y-13422536D01*
X25092312Y-13409910D01*
X25086018Y-13396603D01*
X25081059Y-13382743D01*
X25077482Y-13368464D01*
X25075322Y-13353903D01*
X25074600Y-13339200D01*
X25074600Y-11889200D01*
X25075322Y-11874497D01*
X25077482Y-11859936D01*
X25081059Y-11845657D01*
X25086018Y-11831797D01*
X25092312Y-11818490D01*
X25099880Y-11805864D01*
X25108648Y-11794041D01*
X25118534Y-11783134D01*
X25129441Y-11773248D01*
X25141264Y-11764480D01*
X25153890Y-11756912D01*
X25167197Y-11750618D01*
X25181057Y-11745659D01*
X25195336Y-11742082D01*
X25209897Y-11739922D01*
X25224600Y-11739200D01*
X25524600Y-11739200D01*
X25539303Y-11739922D01*
G37*
G36*
X24269303Y-11739922D02*
G01*
X24283864Y-11742082D01*
X24298143Y-11745659D01*
X24312003Y-11750618D01*
X24325310Y-11756912D01*
X24337936Y-11764480D01*
X24349759Y-11773248D01*
X24360666Y-11783134D01*
X24370552Y-11794041D01*
X24379320Y-11805864D01*
X24386888Y-11818490D01*
X24393182Y-11831797D01*
X24398141Y-11845657D01*
X24401718Y-11859936D01*
X24403878Y-11874497D01*
X24404600Y-11889200D01*
X24404600Y-13339200D01*
X24403878Y-13353903D01*
X24401718Y-13368464D01*
X24398141Y-13382743D01*
X24393182Y-13396603D01*
X24386888Y-13409910D01*
X24379320Y-13422536D01*
X24370552Y-13434359D01*
X24360666Y-13445266D01*
X24349759Y-13455152D01*
X24337936Y-13463920D01*
X24325310Y-13471488D01*
X24312003Y-13477782D01*
X24298143Y-13482741D01*
X24283864Y-13486318D01*
X24269303Y-13488478D01*
X24254600Y-13489200D01*
X23954600Y-13489200D01*
X23939897Y-13488478D01*
X23925336Y-13486318D01*
X23911057Y-13482741D01*
X23897197Y-13477782D01*
X23883890Y-13471488D01*
X23871264Y-13463920D01*
X23859441Y-13455152D01*
X23848534Y-13445266D01*
X23838648Y-13434359D01*
X23829880Y-13422536D01*
X23822312Y-13409910D01*
X23816018Y-13396603D01*
X23811059Y-13382743D01*
X23807482Y-13368464D01*
X23805322Y-13353903D01*
X23804600Y-13339200D01*
X23804600Y-11889200D01*
X23805322Y-11874497D01*
X23807482Y-11859936D01*
X23811059Y-11845657D01*
X23816018Y-11831797D01*
X23822312Y-11818490D01*
X23829880Y-11805864D01*
X23838648Y-11794041D01*
X23848534Y-11783134D01*
X23859441Y-11773248D01*
X23871264Y-11764480D01*
X23883890Y-11756912D01*
X23897197Y-11750618D01*
X23911057Y-11745659D01*
X23925336Y-11742082D01*
X23939897Y-11739922D01*
X23954600Y-11739200D01*
X24254600Y-11739200D01*
X24269303Y-11739922D01*
G37*
G36*
X22999303Y-11739922D02*
G01*
X23013864Y-11742082D01*
X23028143Y-11745659D01*
X23042003Y-11750618D01*
X23055310Y-11756912D01*
X23067936Y-11764480D01*
X23079759Y-11773248D01*
X23090666Y-11783134D01*
X23100552Y-11794041D01*
X23109320Y-11805864D01*
X23116888Y-11818490D01*
X23123182Y-11831797D01*
X23128141Y-11845657D01*
X23131718Y-11859936D01*
X23133878Y-11874497D01*
X23134600Y-11889200D01*
X23134600Y-13339200D01*
X23133878Y-13353903D01*
X23131718Y-13368464D01*
X23128141Y-13382743D01*
X23123182Y-13396603D01*
X23116888Y-13409910D01*
X23109320Y-13422536D01*
X23100552Y-13434359D01*
X23090666Y-13445266D01*
X23079759Y-13455152D01*
X23067936Y-13463920D01*
X23055310Y-13471488D01*
X23042003Y-13477782D01*
X23028143Y-13482741D01*
X23013864Y-13486318D01*
X22999303Y-13488478D01*
X22984600Y-13489200D01*
X22684600Y-13489200D01*
X22669897Y-13488478D01*
X22655336Y-13486318D01*
X22641057Y-13482741D01*
X22627197Y-13477782D01*
X22613890Y-13471488D01*
X22601264Y-13463920D01*
X22589441Y-13455152D01*
X22578534Y-13445266D01*
X22568648Y-13434359D01*
X22559880Y-13422536D01*
X22552312Y-13409910D01*
X22546018Y-13396603D01*
X22541059Y-13382743D01*
X22537482Y-13368464D01*
X22535322Y-13353903D01*
X22534600Y-13339200D01*
X22534600Y-11889200D01*
X22535322Y-11874497D01*
X22537482Y-11859936D01*
X22541059Y-11845657D01*
X22546018Y-11831797D01*
X22552312Y-11818490D01*
X22559880Y-11805864D01*
X22568648Y-11794041D01*
X22578534Y-11783134D01*
X22589441Y-11773248D01*
X22601264Y-11764480D01*
X22613890Y-11756912D01*
X22627197Y-11750618D01*
X22641057Y-11745659D01*
X22655336Y-11742082D01*
X22669897Y-11739922D01*
X22684600Y-11739200D01*
X22984600Y-11739200D01*
X22999303Y-11739922D01*
G37*
G36*
X21729303Y-11739922D02*
G01*
X21743864Y-11742082D01*
X21758143Y-11745659D01*
X21772003Y-11750618D01*
X21785310Y-11756912D01*
X21797936Y-11764480D01*
X21809759Y-11773248D01*
X21820666Y-11783134D01*
X21830552Y-11794041D01*
X21839320Y-11805864D01*
X21846888Y-11818490D01*
X21853182Y-11831797D01*
X21858141Y-11845657D01*
X21861718Y-11859936D01*
X21863878Y-11874497D01*
X21864600Y-11889200D01*
X21864600Y-13339200D01*
X21863878Y-13353903D01*
X21861718Y-13368464D01*
X21858141Y-13382743D01*
X21853182Y-13396603D01*
X21846888Y-13409910D01*
X21839320Y-13422536D01*
X21830552Y-13434359D01*
X21820666Y-13445266D01*
X21809759Y-13455152D01*
X21797936Y-13463920D01*
X21785310Y-13471488D01*
X21772003Y-13477782D01*
X21758143Y-13482741D01*
X21743864Y-13486318D01*
X21729303Y-13488478D01*
X21714600Y-13489200D01*
X21414600Y-13489200D01*
X21399897Y-13488478D01*
X21385336Y-13486318D01*
X21371057Y-13482741D01*
X21357197Y-13477782D01*
X21343890Y-13471488D01*
X21331264Y-13463920D01*
X21319441Y-13455152D01*
X21308534Y-13445266D01*
X21298648Y-13434359D01*
X21289880Y-13422536D01*
X21282312Y-13409910D01*
X21276018Y-13396603D01*
X21271059Y-13382743D01*
X21267482Y-13368464D01*
X21265322Y-13353903D01*
X21264600Y-13339200D01*
X21264600Y-11889200D01*
X21265322Y-11874497D01*
X21267482Y-11859936D01*
X21271059Y-11845657D01*
X21276018Y-11831797D01*
X21282312Y-11818490D01*
X21289880Y-11805864D01*
X21298648Y-11794041D01*
X21308534Y-11783134D01*
X21319441Y-11773248D01*
X21331264Y-11764480D01*
X21343890Y-11756912D01*
X21357197Y-11750618D01*
X21371057Y-11745659D01*
X21385336Y-11742082D01*
X21399897Y-11739922D01*
X21414600Y-11739200D01*
X21714600Y-11739200D01*
X21729303Y-11739922D01*
G37*
G36*
X25539303Y-16889922D02*
G01*
X25553864Y-16892082D01*
X25568143Y-16895659D01*
X25582003Y-16900618D01*
X25595310Y-16906912D01*
X25607936Y-16914480D01*
X25619759Y-16923248D01*
X25630666Y-16933134D01*
X25640552Y-16944041D01*
X25649320Y-16955864D01*
X25656888Y-16968490D01*
X25663182Y-16981797D01*
X25668141Y-16995657D01*
X25671718Y-17009936D01*
X25673878Y-17024497D01*
X25674600Y-17039200D01*
X25674600Y-18489200D01*
X25673878Y-18503903D01*
X25671718Y-18518464D01*
X25668141Y-18532743D01*
X25663182Y-18546603D01*
X25656888Y-18559910D01*
X25649320Y-18572536D01*
X25640552Y-18584359D01*
X25630666Y-18595266D01*
X25619759Y-18605152D01*
X25607936Y-18613920D01*
X25595310Y-18621488D01*
X25582003Y-18627782D01*
X25568143Y-18632741D01*
X25553864Y-18636318D01*
X25539303Y-18638478D01*
X25524600Y-18639200D01*
X25224600Y-18639200D01*
X25209897Y-18638478D01*
X25195336Y-18636318D01*
X25181057Y-18632741D01*
X25167197Y-18627782D01*
X25153890Y-18621488D01*
X25141264Y-18613920D01*
X25129441Y-18605152D01*
X25118534Y-18595266D01*
X25108648Y-18584359D01*
X25099880Y-18572536D01*
X25092312Y-18559910D01*
X25086018Y-18546603D01*
X25081059Y-18532743D01*
X25077482Y-18518464D01*
X25075322Y-18503903D01*
X25074600Y-18489200D01*
X25074600Y-17039200D01*
X25075322Y-17024497D01*
X25077482Y-17009936D01*
X25081059Y-16995657D01*
X25086018Y-16981797D01*
X25092312Y-16968490D01*
X25099880Y-16955864D01*
X25108648Y-16944041D01*
X25118534Y-16933134D01*
X25129441Y-16923248D01*
X25141264Y-16914480D01*
X25153890Y-16906912D01*
X25167197Y-16900618D01*
X25181057Y-16895659D01*
X25195336Y-16892082D01*
X25209897Y-16889922D01*
X25224600Y-16889200D01*
X25524600Y-16889200D01*
X25539303Y-16889922D01*
G37*
G36*
X24269303Y-16889922D02*
G01*
X24283864Y-16892082D01*
X24298143Y-16895659D01*
X24312003Y-16900618D01*
X24325310Y-16906912D01*
X24337936Y-16914480D01*
X24349759Y-16923248D01*
X24360666Y-16933134D01*
X24370552Y-16944041D01*
X24379320Y-16955864D01*
X24386888Y-16968490D01*
X24393182Y-16981797D01*
X24398141Y-16995657D01*
X24401718Y-17009936D01*
X24403878Y-17024497D01*
X24404600Y-17039200D01*
X24404600Y-18489200D01*
X24403878Y-18503903D01*
X24401718Y-18518464D01*
X24398141Y-18532743D01*
X24393182Y-18546603D01*
X24386888Y-18559910D01*
X24379320Y-18572536D01*
X24370552Y-18584359D01*
X24360666Y-18595266D01*
X24349759Y-18605152D01*
X24337936Y-18613920D01*
X24325310Y-18621488D01*
X24312003Y-18627782D01*
X24298143Y-18632741D01*
X24283864Y-18636318D01*
X24269303Y-18638478D01*
X24254600Y-18639200D01*
X23954600Y-18639200D01*
X23939897Y-18638478D01*
X23925336Y-18636318D01*
X23911057Y-18632741D01*
X23897197Y-18627782D01*
X23883890Y-18621488D01*
X23871264Y-18613920D01*
X23859441Y-18605152D01*
X23848534Y-18595266D01*
X23838648Y-18584359D01*
X23829880Y-18572536D01*
X23822312Y-18559910D01*
X23816018Y-18546603D01*
X23811059Y-18532743D01*
X23807482Y-18518464D01*
X23805322Y-18503903D01*
X23804600Y-18489200D01*
X23804600Y-17039200D01*
X23805322Y-17024497D01*
X23807482Y-17009936D01*
X23811059Y-16995657D01*
X23816018Y-16981797D01*
X23822312Y-16968490D01*
X23829880Y-16955864D01*
X23838648Y-16944041D01*
X23848534Y-16933134D01*
X23859441Y-16923248D01*
X23871264Y-16914480D01*
X23883890Y-16906912D01*
X23897197Y-16900618D01*
X23911057Y-16895659D01*
X23925336Y-16892082D01*
X23939897Y-16889922D01*
X23954600Y-16889200D01*
X24254600Y-16889200D01*
X24269303Y-16889922D01*
G37*
G36*
X22999303Y-16889922D02*
G01*
X23013864Y-16892082D01*
X23028143Y-16895659D01*
X23042003Y-16900618D01*
X23055310Y-16906912D01*
X23067936Y-16914480D01*
X23079759Y-16923248D01*
X23090666Y-16933134D01*
X23100552Y-16944041D01*
X23109320Y-16955864D01*
X23116888Y-16968490D01*
X23123182Y-16981797D01*
X23128141Y-16995657D01*
X23131718Y-17009936D01*
X23133878Y-17024497D01*
X23134600Y-17039200D01*
X23134600Y-18489200D01*
X23133878Y-18503903D01*
X23131718Y-18518464D01*
X23128141Y-18532743D01*
X23123182Y-18546603D01*
X23116888Y-18559910D01*
X23109320Y-18572536D01*
X23100552Y-18584359D01*
X23090666Y-18595266D01*
X23079759Y-18605152D01*
X23067936Y-18613920D01*
X23055310Y-18621488D01*
X23042003Y-18627782D01*
X23028143Y-18632741D01*
X23013864Y-18636318D01*
X22999303Y-18638478D01*
X22984600Y-18639200D01*
X22684600Y-18639200D01*
X22669897Y-18638478D01*
X22655336Y-18636318D01*
X22641057Y-18632741D01*
X22627197Y-18627782D01*
X22613890Y-18621488D01*
X22601264Y-18613920D01*
X22589441Y-18605152D01*
X22578534Y-18595266D01*
X22568648Y-18584359D01*
X22559880Y-18572536D01*
X22552312Y-18559910D01*
X22546018Y-18546603D01*
X22541059Y-18532743D01*
X22537482Y-18518464D01*
X22535322Y-18503903D01*
X22534600Y-18489200D01*
X22534600Y-17039200D01*
X22535322Y-17024497D01*
X22537482Y-17009936D01*
X22541059Y-16995657D01*
X22546018Y-16981797D01*
X22552312Y-16968490D01*
X22559880Y-16955864D01*
X22568648Y-16944041D01*
X22578534Y-16933134D01*
X22589441Y-16923248D01*
X22601264Y-16914480D01*
X22613890Y-16906912D01*
X22627197Y-16900618D01*
X22641057Y-16895659D01*
X22655336Y-16892082D01*
X22669897Y-16889922D01*
X22684600Y-16889200D01*
X22984600Y-16889200D01*
X22999303Y-16889922D01*
G37*
G36*
X21729303Y-16889922D02*
G01*
X21743864Y-16892082D01*
X21758143Y-16895659D01*
X21772003Y-16900618D01*
X21785310Y-16906912D01*
X21797936Y-16914480D01*
X21809759Y-16923248D01*
X21820666Y-16933134D01*
X21830552Y-16944041D01*
X21839320Y-16955864D01*
X21846888Y-16968490D01*
X21853182Y-16981797D01*
X21858141Y-16995657D01*
X21861718Y-17009936D01*
X21863878Y-17024497D01*
X21864600Y-17039200D01*
X21864600Y-18489200D01*
X21863878Y-18503903D01*
X21861718Y-18518464D01*
X21858141Y-18532743D01*
X21853182Y-18546603D01*
X21846888Y-18559910D01*
X21839320Y-18572536D01*
X21830552Y-18584359D01*
X21820666Y-18595266D01*
X21809759Y-18605152D01*
X21797936Y-18613920D01*
X21785310Y-18621488D01*
X21772003Y-18627782D01*
X21758143Y-18632741D01*
X21743864Y-18636318D01*
X21729303Y-18638478D01*
X21714600Y-18639200D01*
X21414600Y-18639200D01*
X21399897Y-18638478D01*
X21385336Y-18636318D01*
X21371057Y-18632741D01*
X21357197Y-18627782D01*
X21343890Y-18621488D01*
X21331264Y-18613920D01*
X21319441Y-18605152D01*
X21308534Y-18595266D01*
X21298648Y-18584359D01*
X21289880Y-18572536D01*
X21282312Y-18559910D01*
X21276018Y-18546603D01*
X21271059Y-18532743D01*
X21267482Y-18518464D01*
X21265322Y-18503903D01*
X21264600Y-18489200D01*
X21264600Y-17039200D01*
X21265322Y-17024497D01*
X21267482Y-17009936D01*
X21271059Y-16995657D01*
X21276018Y-16981797D01*
X21282312Y-16968490D01*
X21289880Y-16955864D01*
X21298648Y-16944041D01*
X21308534Y-16933134D01*
X21319441Y-16923248D01*
X21331264Y-16914480D01*
X21343890Y-16906912D01*
X21357197Y-16900618D01*
X21371057Y-16895659D01*
X21385336Y-16892082D01*
X21399897Y-16889922D01*
X21414600Y-16889200D01*
X21714600Y-16889200D01*
X21729303Y-16889922D01*
G37*
%TD*%
M02*
